M48
METRIC,LZ,000.000
;FILE_FORMAT=3:3
;TYPE=PLATED
;Layer: PTH_Through
;EasyEDA v6.5.34, 2023-10-03 12:26:18
;78a80f753c6143bb8b8cf10a4e40b0e4,10
;Gerber Generator version 0.2
;Holesize 1 = 0.914 mm
T01C0.914
;Holesize 2 = 1.110 mm
T02C1.110
;Holesize 3 = 1.501 mm
T03C1.501
%
G05
G90
T01
X049276Y-009906
X051816Y-009906
X054356Y-009906
X056896Y-009906
T02
X145793Y-005207G85X145799Y-005207
X145793Y-002667G85X145799Y-002667
X143253Y-005207G85X143259Y-005207
X143253Y-002667G85X143259Y-002667
X140713Y-005207G85X140719Y-005207
X140713Y-002667G85X140719Y-002667
X138173Y-005207G85X138179Y-005207
X138173Y-002667G85X138179Y-002667
X135633Y-005207G85X135639Y-005207
X135633Y-002667G85X135639Y-002667
X133093Y-005207G85X133099Y-005207
X133093Y-002667G85X133099Y-002667
X130553Y-005207G85X130559Y-005207
X130553Y-002667G85X130559Y-002667
X128013Y-005207G85X128019Y-005207
X128013Y-002667G85X128019Y-002667
X125473Y-005207G85X125479Y-005207
X125473Y-002667G85X125479Y-002667
X122933Y-005207G85X122939Y-005207
X122933Y-002667G85X122939Y-002667
X120393Y-005207G85X120399Y-005207
X120393Y-002667G85X120399Y-002667
X117853Y-005207G85X117859Y-005207
X117853Y-002667G85X117859Y-002667
X115313Y-005207G85X115319Y-005207
X115313Y-002667G85X115319Y-002667
X112773Y-005207G85X112779Y-005207
X112773Y-002667G85X112779Y-002667
X110233Y-005207G85X110239Y-005207
X110233Y-002667G85X110239Y-002667
X107693Y-005207G85X107699Y-005207
X107693Y-002667G85X107699Y-002667
X105153Y-005207G85X105159Y-005207
X105153Y-002667G85X105159Y-002667
X102613Y-005207G85X102619Y-005207
X102613Y-002667G85X102619Y-002667
X100073Y-005207G85X100079Y-005207
X100073Y-002667G85X100079Y-002667
X097533Y-005207G85X097539Y-005207
X097533Y-002667G85X097539Y-002667
T03
X050213Y-020574
X056213Y-020574
M30
