G04 Layer: TopSilkscreenLayer*
G04 EasyEDA v6.5.34, 2023-10-03 12:26:18*
G04 78a80f753c6143bb8b8cf10a4e40b0e4,10*
G04 Gerber Generator version 0.2*
G04 Scale: 100 percent, Rotated: No, Reflected: No *
G04 Dimensions in millimeters *
G04 leading zeros omitted , absolute positions ,4 integer and 5 decimal *
%FSLAX45Y45*%
%MOMM*%

%ADD10C,0.1524*%
%ADD11C,0.1500*%
%ADD12C,0.2540*%
%ADD13C,0.1001*%

%LPD*%
D10*
X5300725Y-1307084D02*
G01*
X5300725Y-1416050D01*
X5300725Y-1307084D02*
G01*
X5347461Y-1307084D01*
X5362956Y-1312163D01*
X5368290Y-1317497D01*
X5373370Y-1327912D01*
X5373370Y-1338326D01*
X5368290Y-1348739D01*
X5362956Y-1353820D01*
X5347461Y-1358900D01*
X5300725Y-1358900D02*
G01*
X5347461Y-1358900D01*
X5362956Y-1364234D01*
X5368290Y-1369313D01*
X5373370Y-1379728D01*
X5373370Y-1395476D01*
X5368290Y-1405889D01*
X5362956Y-1410970D01*
X5347461Y-1416050D01*
X5300725Y-1416050D01*
X5407659Y-1307084D02*
G01*
X5407659Y-1385062D01*
X5412993Y-1400555D01*
X5423408Y-1410970D01*
X5438902Y-1416050D01*
X5449315Y-1416050D01*
X5464809Y-1410970D01*
X5475224Y-1400555D01*
X5480558Y-1385062D01*
X5480558Y-1307084D01*
X5587491Y-1307084D02*
G01*
X5514847Y-1416050D01*
X5514847Y-1307084D02*
G01*
X5587491Y-1307084D01*
X5514847Y-1416050D02*
G01*
X5587491Y-1416050D01*
X5694425Y-1307084D02*
G01*
X5621781Y-1416050D01*
X5621781Y-1307084D02*
G01*
X5694425Y-1307084D01*
X5621781Y-1416050D02*
G01*
X5694425Y-1416050D01*
X5728715Y-1307084D02*
G01*
X5728715Y-1416050D01*
X5728715Y-1307084D02*
G01*
X5796279Y-1307084D01*
X5728715Y-1358900D02*
G01*
X5770372Y-1358900D01*
X5728715Y-1416050D02*
G01*
X5796279Y-1416050D01*
X5830570Y-1307084D02*
G01*
X5830570Y-1416050D01*
X5830570Y-1307084D02*
G01*
X5877306Y-1307084D01*
X5893054Y-1312163D01*
X5898134Y-1317497D01*
X5903468Y-1327912D01*
X5903468Y-1338326D01*
X5898134Y-1348739D01*
X5893054Y-1353820D01*
X5877306Y-1358900D01*
X5830570Y-1358900D01*
X5866891Y-1358900D02*
G01*
X5903468Y-1416050D01*
X5285925Y-3067481D02*
G01*
X5285925Y-3176447D01*
X5285925Y-3176447D02*
G01*
X5348155Y-3176447D01*
X5382445Y-3067481D02*
G01*
X5382445Y-3176447D01*
X5382445Y-3067481D02*
G01*
X5450009Y-3067481D01*
X5382445Y-3119297D02*
G01*
X5424101Y-3119297D01*
X5382445Y-3176447D02*
G01*
X5450009Y-3176447D01*
X5484299Y-3067481D02*
G01*
X5484299Y-3176447D01*
X5484299Y-3067481D02*
G01*
X5520875Y-3067481D01*
X5536369Y-3072561D01*
X5546783Y-3082975D01*
X5551863Y-3093389D01*
X5557197Y-3109137D01*
X5557197Y-3135045D01*
X5551863Y-3150539D01*
X5546783Y-3160953D01*
X5536369Y-3171367D01*
X5520875Y-3176447D01*
X5484299Y-3176447D01*
X5334000Y-3783584D02*
G01*
X5334000Y-3892550D01*
X5334000Y-3783584D02*
G01*
X5380736Y-3783584D01*
X5396229Y-3788663D01*
X5401563Y-3793997D01*
X5406643Y-3804412D01*
X5406643Y-3814826D01*
X5401563Y-3825239D01*
X5396229Y-3830320D01*
X5380736Y-3835400D01*
X5334000Y-3835400D01*
X5370322Y-3835400D02*
G01*
X5406643Y-3892550D01*
X5440934Y-3804412D02*
G01*
X5451347Y-3799078D01*
X5467095Y-3783584D01*
X5467095Y-3892550D01*
X5257800Y-519684D02*
G01*
X5257800Y-597662D01*
X5262879Y-613155D01*
X5273293Y-623570D01*
X5289041Y-628650D01*
X5299456Y-628650D01*
X5314950Y-623570D01*
X5325363Y-613155D01*
X5330443Y-597662D01*
X5330443Y-519684D01*
X5370068Y-545592D02*
G01*
X5370068Y-540512D01*
X5375147Y-530097D01*
X5380481Y-524763D01*
X5390895Y-519684D01*
X5411470Y-519684D01*
X5421884Y-524763D01*
X5427218Y-530097D01*
X5432297Y-540512D01*
X5432297Y-550926D01*
X5427218Y-561339D01*
X5416804Y-576834D01*
X5364734Y-628650D01*
X5437631Y-628650D01*
D11*
X4749800Y-681228D02*
G01*
X4779009Y-757681D01*
X4807965Y-681228D02*
G01*
X4779009Y-757681D01*
X4886452Y-699515D02*
G01*
X4882895Y-692150D01*
X4875529Y-684784D01*
X4868418Y-681228D01*
X4853686Y-681228D01*
X4846574Y-684784D01*
X4839208Y-692150D01*
X4835652Y-699515D01*
X4832095Y-710437D01*
X4832095Y-728471D01*
X4835652Y-739394D01*
X4839208Y-746760D01*
X4846574Y-754126D01*
X4853686Y-757681D01*
X4868418Y-757681D01*
X4875529Y-754126D01*
X4882895Y-746760D01*
X4886452Y-739394D01*
X4965191Y-699515D02*
G01*
X4961381Y-692150D01*
X4954270Y-684784D01*
X4946904Y-681228D01*
X4932425Y-681228D01*
X4925059Y-684784D01*
X4917693Y-692150D01*
X4914138Y-699515D01*
X4910581Y-710437D01*
X4910581Y-728471D01*
X4914138Y-739394D01*
X4917693Y-746760D01*
X4925059Y-754126D01*
X4932425Y-757681D01*
X4946904Y-757681D01*
X4954270Y-754126D01*
X4961381Y-746760D01*
X4965191Y-739394D01*
X5003800Y-757428D02*
G01*
X5003800Y-833881D01*
X5003800Y-757428D02*
G01*
X5051043Y-757428D01*
X5003800Y-793750D02*
G01*
X5033009Y-793750D01*
X5003800Y-833881D02*
G01*
X5051043Y-833881D01*
X5129529Y-775715D02*
G01*
X5125974Y-768350D01*
X5118608Y-760984D01*
X5111495Y-757428D01*
X5096763Y-757428D01*
X5089652Y-760984D01*
X5082286Y-768350D01*
X5078729Y-775715D01*
X5075174Y-786637D01*
X5075174Y-804671D01*
X5078729Y-815594D01*
X5082286Y-822960D01*
X5089652Y-830326D01*
X5096763Y-833881D01*
X5111495Y-833881D01*
X5118608Y-830326D01*
X5125974Y-822960D01*
X5129529Y-815594D01*
X5153659Y-757428D02*
G01*
X5153659Y-833881D01*
X5204459Y-757428D02*
G01*
X5204459Y-833881D01*
X5153659Y-793750D02*
G01*
X5204459Y-793750D01*
X5250434Y-757428D02*
G01*
X5243068Y-760984D01*
X5235702Y-768350D01*
X5232145Y-775715D01*
X5228590Y-786637D01*
X5228590Y-804671D01*
X5232145Y-815594D01*
X5235702Y-822960D01*
X5243068Y-830326D01*
X5250434Y-833881D01*
X5264911Y-833881D01*
X5272277Y-830326D01*
X5279390Y-822960D01*
X5282945Y-815594D01*
X5286756Y-804671D01*
X5286756Y-786637D01*
X5282945Y-775715D01*
X5279390Y-768350D01*
X5272277Y-760984D01*
X5264911Y-757428D01*
X5250434Y-757428D01*
X5334000Y-681228D02*
G01*
X5334000Y-757681D01*
X5308600Y-681228D02*
G01*
X5359400Y-681228D01*
X5383529Y-681228D02*
G01*
X5383529Y-757681D01*
X5383529Y-681228D02*
G01*
X5416295Y-681228D01*
X5427218Y-684784D01*
X5430774Y-688594D01*
X5434329Y-695705D01*
X5434329Y-703071D01*
X5430774Y-710437D01*
X5427218Y-713994D01*
X5416295Y-717550D01*
X5383529Y-717550D01*
X5408929Y-717550D02*
G01*
X5434329Y-757681D01*
X5458459Y-681228D02*
G01*
X5458459Y-757681D01*
X5536945Y-699515D02*
G01*
X5533390Y-692150D01*
X5526024Y-684784D01*
X5518658Y-681228D01*
X5504179Y-681228D01*
X5497068Y-684784D01*
X5489702Y-692150D01*
X5486145Y-699515D01*
X5482336Y-710437D01*
X5482336Y-728471D01*
X5486145Y-739394D01*
X5489702Y-746760D01*
X5497068Y-754126D01*
X5504179Y-757681D01*
X5518658Y-757681D01*
X5526024Y-754126D01*
X5533390Y-746760D01*
X5536945Y-739394D01*
X5536945Y-728471D01*
X5518658Y-728471D02*
G01*
X5536945Y-728471D01*
X5642609Y-775715D02*
G01*
X5638800Y-768350D01*
X5631688Y-760984D01*
X5624322Y-757428D01*
X5609843Y-757428D01*
X5602477Y-760984D01*
X5595365Y-768350D01*
X5591556Y-775715D01*
X5588000Y-786637D01*
X5588000Y-804671D01*
X5591556Y-815594D01*
X5595365Y-822960D01*
X5602477Y-830326D01*
X5609843Y-833881D01*
X5624322Y-833881D01*
X5631688Y-830326D01*
X5638800Y-822960D01*
X5642609Y-815594D01*
X5642609Y-804671D01*
X5624322Y-804671D02*
G01*
X5642609Y-804671D01*
X5666486Y-757428D02*
G01*
X5666486Y-833881D01*
X5666486Y-757428D02*
G01*
X5717540Y-833881D01*
X5717540Y-757428D02*
G01*
X5717540Y-833881D01*
X5741415Y-757428D02*
G01*
X5741415Y-833881D01*
X5741415Y-757428D02*
G01*
X5766815Y-757428D01*
X5777738Y-760984D01*
X5785104Y-768350D01*
X5788659Y-775715D01*
X5792470Y-786637D01*
X5792470Y-804671D01*
X5788659Y-815594D01*
X5785104Y-822960D01*
X5777738Y-830326D01*
X5766815Y-833881D01*
X5741415Y-833881D01*
D10*
X11150600Y102615D02*
G01*
X11150600Y24637D01*
X11155679Y9144D01*
X11166093Y-1270D01*
X11181841Y-6350D01*
X11192256Y-6350D01*
X11207750Y-1270D01*
X11218163Y9144D01*
X11223243Y24637D01*
X11223243Y102615D01*
X11267947Y102615D02*
G01*
X11325097Y102615D01*
X11294109Y60960D01*
X11309604Y60960D01*
X11320018Y55879D01*
X11325097Y50800D01*
X11330431Y35052D01*
X11330431Y24637D01*
X11325097Y9144D01*
X11314684Y-1270D01*
X11299190Y-6350D01*
X11283695Y-6350D01*
X11267947Y-1270D01*
X11262868Y3810D01*
X11257534Y14223D01*
G36*
X5284876Y-3265982D02*
G01*
X5283911Y-3337966D01*
X5309870Y-3302000D01*
G37*
D12*
X4864100Y-1816100D02*
G01*
X5156200Y-1816100D01*
X5430210Y-1766968D02*
G01*
X5722310Y-1766968D01*
X5575300Y-1917700D02*
G01*
X5575300Y-1625600D01*
D11*
X5332900Y-3229000D02*
G01*
X5447898Y-3229000D01*
X5447898Y-3373998D01*
X5327898Y-3373998D01*
X5265900Y-3374999D02*
G01*
X5141899Y-3374999D01*
X5141899Y-3230001D01*
X5265900Y-3230001D01*
X5447898Y-3229000D02*
G01*
X5450900Y-3229000D01*
X5470900Y-3249000D01*
X5470900Y-3350999D01*
X5467898Y-3353998D01*
X5447898Y-3373998D01*
D10*
X5376621Y-3647460D02*
G01*
X5472508Y-3647460D01*
X5472508Y-3515339D01*
X5376621Y-3515339D01*
X5291378Y-3647460D02*
G01*
X5195491Y-3647460D01*
X5195491Y-3515339D01*
X5291378Y-3515339D01*
D12*
X4943904Y-1092200D02*
G01*
X5165295Y-1092200D01*
X5197904Y-1092200D02*
G01*
X5419295Y-1092200D01*
X5451904Y-1092200D02*
G01*
X5673295Y-1092200D01*
X5705904Y-1092200D02*
G01*
X5791200Y-1092200D01*
X5791200Y-1006904D01*
X5791200Y-974295D02*
G01*
X5791200Y-889000D01*
X4826000Y-1006904D02*
G01*
X4826000Y-1092200D01*
X4911295Y-1092200D01*
X4911295Y-889000D02*
G01*
X4826000Y-889000D01*
X4826000Y-974295D01*
X5165295Y-889000D02*
G01*
X4943904Y-889000D01*
X5419295Y-889000D02*
G01*
X5197904Y-889000D01*
X5673295Y-889000D02*
G01*
X5451904Y-889000D01*
X5791200Y-889000D02*
G01*
X5705904Y-889000D01*
D13*
X9626600Y-146202D02*
G01*
X14706600Y-146202D01*
X14706600Y-641197D01*
X9626600Y-641197D01*
X9626600Y-146202D01*
D12*
G75*
G01
X5920765Y-2057400D02*
G03X5920765Y-2057400I-599465J0D01*
M02*
