G04 Layer: TopSolderMaskLayer*
G04 EasyEDA v6.5.34, 2023-10-03 12:26:18*
G04 78a80f753c6143bb8b8cf10a4e40b0e4,10*
G04 Gerber Generator version 0.2*
G04 Scale: 100 percent, Rotated: No, Reflected: No *
G04 Dimensions in millimeters *
G04 leading zeros omitted , absolute positions ,4 integer and 5 decimal *
%FSLAX45Y45*%
%MOMM*%

%AMMACRO1*1,1,$1,$2,$3*1,1,$1,$4,$5*1,1,$1,0-$2,0-$3*1,1,$1,0-$4,0-$5*20,1,$1,$2,$3,$4,$5,0*20,1,$1,$4,$5,0-$2,0-$3,0*20,1,$1,0-$2,0-$3,0-$4,0-$5,0*20,1,$1,0-$4,0-$5,$2,$3,0*4,1,4,$2,$3,$4,$5,0-$2,0-$3,0-$4,0-$5,$2,$3,0*%
%ADD10C,0.2032*%
%ADD11C,2.6000*%
%ADD12MACRO1,0.1016X0.45X0.5X0.45X-0.5*%
%ADD13MACRO1,0.1016X-0.4032X-0.432X-0.4032X0.432*%
%ADD14MACRO1,0.1016X0.4032X-0.432X0.4032X0.432*%
%ADD15C,1.8032*%
%ADD16MACRO1,0.1016X-0.8325X0.8325X0.8325X0.8325*%
%ADD17C,1.7666*%
%ADD18C,0.0119*%

%LPD*%
G36*
X5602884Y-4088790D02*
G01*
X5505704Y-4088993D01*
X5461558Y-4089349D01*
X5458307Y-4089958D01*
X5455513Y-4090924D01*
X5452719Y-4092295D01*
X5444032Y-4098036D01*
X5444032Y-4147515D01*
X5450992Y-4152392D01*
X5454904Y-4154728D01*
X5456631Y-4155389D01*
X5476392Y-4155795D01*
X5522976Y-4156100D01*
X5718962Y-4156303D01*
X5768289Y-4156557D01*
X5791657Y-4157167D01*
X5792216Y-4157624D01*
X5792724Y-4160012D01*
X5793130Y-4165041D01*
X5793638Y-4185818D01*
X5794349Y-4351121D01*
X5795010Y-4387392D01*
X5795721Y-4390237D01*
X5796788Y-4392371D01*
X5798870Y-4393895D01*
X5802376Y-4394911D01*
X5807964Y-4395571D01*
X5816092Y-4395927D01*
X5880303Y-4396079D01*
X5885281Y-4392777D01*
X5889193Y-4389424D01*
X5890717Y-4387646D01*
X5891631Y-4386072D01*
X5892241Y-4378096D01*
X5892698Y-4359148D01*
X5893155Y-4298086D01*
X5893155Y-4231995D01*
X5892647Y-4159504D01*
X5891733Y-4109059D01*
X5891123Y-4098188D01*
X5889802Y-4093210D01*
X5889193Y-4092448D01*
X5888126Y-4091787D01*
X5883910Y-4090720D01*
X5880455Y-4090263D01*
X5870041Y-4089654D01*
X5853887Y-4089247D01*
X5789625Y-4088892D01*
G37*
G36*
X5508853Y-4182160D02*
G01*
X5466435Y-4182567D01*
X5458002Y-4183024D01*
X5453837Y-4183634D01*
X5447842Y-4185513D01*
X5444744Y-4189222D01*
X5443524Y-4197248D01*
X5443321Y-4212183D01*
X5443524Y-4226560D01*
X5444490Y-4234586D01*
X5446928Y-4238548D01*
X5452414Y-4241038D01*
X5454904Y-4241495D01*
X5459120Y-4241901D01*
X5477052Y-4242409D01*
X5630214Y-4243070D01*
X5656834Y-4243374D01*
X5663539Y-4243628D01*
X5667197Y-4243984D01*
X5668772Y-4244441D01*
X5669076Y-4244695D01*
X5669432Y-4247743D01*
X5670042Y-4267301D01*
X5670499Y-4299864D01*
X5671007Y-4370070D01*
X5671362Y-4382820D01*
X5671870Y-4389780D01*
X5672226Y-4391710D01*
X5672683Y-4392930D01*
X5673852Y-4394149D01*
X5676239Y-4395216D01*
X5681472Y-4395876D01*
X5692190Y-4396282D01*
X5724499Y-4396841D01*
X5742482Y-4396790D01*
X5747969Y-4396384D01*
X5751779Y-4395724D01*
X5754268Y-4394708D01*
X5755944Y-4393336D01*
X5758332Y-4389831D01*
X5761583Y-4386478D01*
X5767324Y-4382363D01*
X5767222Y-4248810D01*
X5766460Y-4191101D01*
X5766206Y-4188917D01*
X5763869Y-4187342D01*
X5754065Y-4182414D01*
G37*
G36*
X5536438Y-4268774D02*
G01*
X5501487Y-4268927D01*
X5465775Y-4269536D01*
X5462117Y-4269841D01*
X5460238Y-4270756D01*
X5458155Y-4272737D01*
X5455208Y-4276394D01*
X5450840Y-4282389D01*
X5450332Y-4284167D01*
X5449519Y-4292854D01*
X5449011Y-4306773D01*
X5448706Y-4323791D01*
X5449011Y-4358843D01*
X5449570Y-4372711D01*
X5450382Y-4381347D01*
X5450840Y-4383024D01*
X5452719Y-4386021D01*
X5455920Y-4392980D01*
X5456783Y-4393793D01*
X5458002Y-4394504D01*
X5459831Y-4395063D01*
X5465724Y-4395825D01*
X5475579Y-4396282D01*
X5525363Y-4396384D01*
X5619089Y-4396079D01*
X5626709Y-4390999D01*
X5627928Y-4389729D01*
X5628843Y-4388104D01*
X5629554Y-4385868D01*
X5630062Y-4382820D01*
X5630621Y-4373219D01*
X5630722Y-4346956D01*
X5630316Y-4301337D01*
X5629808Y-4288840D01*
X5629402Y-4284726D01*
X5628843Y-4281779D01*
X5628030Y-4279747D01*
X5627014Y-4278426D01*
X5625795Y-4277563D01*
X5622391Y-4276445D01*
X5618988Y-4274921D01*
X5617616Y-4273956D01*
X5615787Y-4271975D01*
X5613044Y-4270197D01*
X5611520Y-4269689D01*
X5607659Y-4269384D01*
X5586679Y-4268978D01*
G37*
G36*
X4814671Y-4605731D02*
G01*
X4798212Y-4606036D01*
X4793843Y-4606290D01*
X4786884Y-4607712D01*
X4769916Y-4612690D01*
X4753457Y-4616602D01*
X4748580Y-4618126D01*
X4744212Y-4619904D01*
X4739792Y-4622190D01*
X4728413Y-4629048D01*
X4717897Y-4636058D01*
X4709464Y-4642459D01*
X4706366Y-4645152D01*
X4698746Y-4653381D01*
X4696104Y-4655870D01*
X4692192Y-4661052D01*
X4688078Y-4667453D01*
X4684014Y-4673041D01*
X4680153Y-4677511D01*
X4678273Y-4680813D01*
X4676851Y-4684725D01*
X4675124Y-4692548D01*
X4667758Y-4717643D01*
X4666132Y-4724908D01*
X4665167Y-4731867D01*
X4664862Y-4738674D01*
X4665218Y-4745532D01*
X4666234Y-4752594D01*
X4667961Y-4760010D01*
X4676800Y-4791151D01*
X4678984Y-4796383D01*
X4681575Y-4801666D01*
X4684623Y-4806848D01*
X4687925Y-4811776D01*
X4691430Y-4816246D01*
X4694986Y-4820107D01*
X4700574Y-4824882D01*
X4704283Y-4828692D01*
X4706874Y-4832096D01*
X4709109Y-4834280D01*
X4714798Y-4838801D01*
X4724095Y-4845304D01*
X4731156Y-4849926D01*
X4738674Y-4853889D01*
X4746294Y-4857140D01*
X4763719Y-4862423D01*
X4764582Y-4862931D01*
X4765649Y-4864100D01*
X4768545Y-4865420D01*
X4773066Y-4866792D01*
X4785715Y-4869484D01*
X4801260Y-4871669D01*
X4809388Y-4872482D01*
X4816195Y-4872786D01*
X4823561Y-4872837D01*
X4839106Y-4871974D01*
X4846777Y-4871161D01*
X4860696Y-4868875D01*
X4866487Y-4867402D01*
X4872075Y-4865674D01*
X4876342Y-4863896D01*
X4879441Y-4861661D01*
X4881575Y-4858664D01*
X4882896Y-4854448D01*
X4883607Y-4848656D01*
X4883912Y-4840884D01*
X4884013Y-4830775D01*
X4883810Y-4815230D01*
X4882642Y-4806696D01*
X4879594Y-4802428D01*
X4873701Y-4799634D01*
X4871161Y-4798720D01*
X4869281Y-4798364D01*
X4867351Y-4798568D01*
X4858461Y-4801006D01*
X4851654Y-4802124D01*
X4844643Y-4802682D01*
X4837734Y-4802784D01*
X4831080Y-4802327D01*
X4825034Y-4801362D01*
X4819853Y-4799888D01*
X4812487Y-4796282D01*
X4808880Y-4795012D01*
X4804765Y-4792472D01*
X4801108Y-4789576D01*
X4799482Y-4787544D01*
X4799025Y-4786274D01*
X4795977Y-4781397D01*
X4791202Y-4774844D01*
X4789119Y-4771288D01*
X4787442Y-4767580D01*
X4786223Y-4763566D01*
X4785258Y-4759045D01*
X4784648Y-4753914D01*
X4784293Y-4748022D01*
X4784293Y-4731918D01*
X4784648Y-4723942D01*
X4785309Y-4717135D01*
X4786325Y-4711395D01*
X4787747Y-4706467D01*
X4789525Y-4702302D01*
X4791760Y-4698746D01*
X4795977Y-4693818D01*
X4798974Y-4689297D01*
X4801971Y-4683556D01*
X4804206Y-4681067D01*
X4807051Y-4679442D01*
X4812538Y-4678121D01*
X4817110Y-4676597D01*
X4823866Y-4673904D01*
X4828997Y-4672634D01*
X4834534Y-4671822D01*
X4840274Y-4671415D01*
X4846066Y-4671517D01*
X4851704Y-4672126D01*
X4857089Y-4673193D01*
X4862068Y-4674717D01*
X4868824Y-4677308D01*
X4876647Y-4674006D01*
X4879136Y-4672431D01*
X4880965Y-4670348D01*
X4882337Y-4667504D01*
X4883251Y-4663643D01*
X4883861Y-4658563D01*
X4884420Y-4643374D01*
X4884826Y-4620717D01*
X4880203Y-4617415D01*
X4877358Y-4615738D01*
X4873294Y-4613859D01*
X4862322Y-4609998D01*
X4849063Y-4605934D01*
G37*
G36*
X5253431Y-4610963D02*
G01*
X5238851Y-4611116D01*
X5226507Y-4611522D01*
X5218023Y-4612233D01*
X5215686Y-4612640D01*
X5210911Y-4614519D01*
X5206238Y-4617110D01*
X5201716Y-4620107D01*
X5201818Y-4803140D01*
X5202224Y-4835144D01*
X5202631Y-4845608D01*
X5203291Y-4853127D01*
X5204206Y-4858207D01*
X5204764Y-4860036D01*
X5206187Y-4862474D01*
X5207965Y-4863846D01*
X5212892Y-4865471D01*
X5217312Y-4866640D01*
X5224170Y-4867300D01*
X5260594Y-4867808D01*
X5302046Y-4868011D01*
X5307939Y-4864963D01*
X5309920Y-4863592D01*
X5311495Y-4861356D01*
X5312664Y-4857496D01*
X5313527Y-4851146D01*
X5314137Y-4841544D01*
X5314746Y-4809185D01*
X5314848Y-4672126D01*
X5314543Y-4641596D01*
X5314137Y-4631690D01*
X5313578Y-4624628D01*
X5312765Y-4619904D01*
X5311597Y-4617008D01*
X5310174Y-4615281D01*
X5308295Y-4614316D01*
X5302808Y-4612589D01*
X5294934Y-4611827D01*
X5283047Y-4611319D01*
X5268671Y-4611014D01*
G37*
G36*
X5344820Y-4611014D02*
G01*
X5336489Y-4616958D01*
X5336489Y-4674006D01*
X5340299Y-4676648D01*
X5342890Y-4678172D01*
X5346649Y-4678984D01*
X5354066Y-4679391D01*
X5380888Y-4679899D01*
X5388356Y-4680254D01*
X5392166Y-4680915D01*
X5394807Y-4682490D01*
X5395620Y-4683709D01*
X5396230Y-4686350D01*
X5396687Y-4691481D01*
X5397195Y-4713325D01*
X5397754Y-4814112D01*
X5398109Y-4846167D01*
X5398414Y-4854803D01*
X5398871Y-4859934D01*
X5399532Y-4862677D01*
X5400344Y-4863998D01*
X5403799Y-4867198D01*
X5463794Y-4867503D01*
X5485942Y-4867300D01*
X5492851Y-4866944D01*
X5497626Y-4866335D01*
X5500776Y-4865420D01*
X5502859Y-4864201D01*
X5504840Y-4862017D01*
X5505500Y-4860188D01*
X5506008Y-4856734D01*
X5506415Y-4850841D01*
X5506872Y-4828336D01*
X5507482Y-4683150D01*
X5510479Y-4681474D01*
X5512663Y-4680610D01*
X5516118Y-4680102D01*
X5530392Y-4679746D01*
X5546394Y-4679645D01*
X5552287Y-4679391D01*
X5556910Y-4678781D01*
X5560517Y-4677765D01*
X5563158Y-4676140D01*
X5565038Y-4673803D01*
X5566308Y-4670602D01*
X5567070Y-4666488D01*
X5567578Y-4661255D01*
X5568594Y-4632299D01*
X5568543Y-4624019D01*
X5567934Y-4619752D01*
X5565800Y-4616602D01*
X5564428Y-4615129D01*
X5562498Y-4613960D01*
X5559196Y-4613097D01*
X5553710Y-4612487D01*
X5545328Y-4612030D01*
X5516626Y-4611573D01*
G37*
G36*
X5087721Y-4611065D02*
G01*
X5074056Y-4611370D01*
X5068874Y-4611827D01*
X5064607Y-4612690D01*
X5061204Y-4613960D01*
X5058613Y-4615688D01*
X5056632Y-4618075D01*
X5055260Y-4621123D01*
X5054396Y-4624933D01*
X5053888Y-4629607D01*
X5053685Y-4641850D01*
X5053939Y-4658512D01*
X5053888Y-4693208D01*
X5053634Y-4696307D01*
X5049977Y-4697476D01*
X5043830Y-4698593D01*
X5036820Y-4699457D01*
X5030470Y-4699812D01*
X5025593Y-4699762D01*
X5022596Y-4699355D01*
X5020614Y-4698492D01*
X5017719Y-4695901D01*
X5017008Y-4694631D01*
X5016449Y-4692650D01*
X5015941Y-4684877D01*
X5016296Y-4633518D01*
X5016093Y-4626254D01*
X5015636Y-4621174D01*
X5014874Y-4617821D01*
X5013706Y-4615637D01*
X5012080Y-4614113D01*
X5008727Y-4612335D01*
X5007102Y-4611928D01*
X5001006Y-4611471D01*
X4988814Y-4611268D01*
X4952034Y-4611370D01*
X4927498Y-4611827D01*
X4921707Y-4612132D01*
X4918252Y-4612640D01*
X4915408Y-4613402D01*
X4913020Y-4614468D01*
X4906975Y-4618837D01*
X4907737Y-4861915D01*
X4915458Y-4867198D01*
X5008321Y-4867757D01*
X5016601Y-4861864D01*
X5016042Y-4807051D01*
X5016195Y-4784039D01*
X5016550Y-4780483D01*
X5017058Y-4778095D01*
X5017820Y-4776368D01*
X5021884Y-4770374D01*
X5030114Y-4770374D01*
X5036261Y-4770882D01*
X5043068Y-4772101D01*
X5049266Y-4773879D01*
X5053685Y-4775809D01*
X5054041Y-4786833D01*
X5053888Y-4839614D01*
X5054295Y-4848656D01*
X5055108Y-4855311D01*
X5056378Y-4860036D01*
X5058156Y-4863236D01*
X5060543Y-4865319D01*
X5063642Y-4866792D01*
X5067808Y-4867148D01*
X5091277Y-4867656D01*
X5130546Y-4867808D01*
X5146294Y-4867452D01*
X5151932Y-4867046D01*
X5156352Y-4866436D01*
X5159654Y-4865624D01*
X5162143Y-4864506D01*
X5163870Y-4863134D01*
X5165090Y-4861356D01*
X5165953Y-4859274D01*
X5166817Y-4855921D01*
X5167376Y-4847183D01*
X5168036Y-4803597D01*
X5168188Y-4619498D01*
X5161026Y-4614824D01*
X5157927Y-4613605D01*
X5154015Y-4612690D01*
X5148783Y-4612030D01*
X5141823Y-4611573D01*
X5121046Y-4611166D01*
G37*
G36*
X5683300Y-4611116D02*
G01*
X5620867Y-4611420D01*
X5597855Y-4612132D01*
X5592978Y-4612944D01*
X5589117Y-4614316D01*
X5586120Y-4616196D01*
X5583885Y-4618736D01*
X5583529Y-4620158D01*
X5583021Y-4628997D01*
X5582666Y-4675479D01*
X5583682Y-4861915D01*
X5591403Y-4867198D01*
X5683656Y-4867808D01*
X5690463Y-4862931D01*
X5692089Y-4860950D01*
X5693308Y-4858308D01*
X5694070Y-4854702D01*
X5694527Y-4849723D01*
X5694629Y-4834534D01*
X5694172Y-4814671D01*
X5694476Y-4798466D01*
X5694832Y-4791608D01*
X5695391Y-4785766D01*
X5696102Y-4781194D01*
X5696966Y-4778044D01*
X5697931Y-4776470D01*
X5698337Y-4776724D01*
X5699556Y-4779416D01*
X5703011Y-4790643D01*
X5705856Y-4798060D01*
X5708650Y-4803698D01*
X5711444Y-4807610D01*
X5714847Y-4811572D01*
X5717235Y-4815281D01*
X5718962Y-4819650D01*
X5721654Y-4829352D01*
X5722975Y-4832654D01*
X5724601Y-4835448D01*
X5728258Y-4839970D01*
X5729782Y-4842205D01*
X5730951Y-4844389D01*
X5733389Y-4851603D01*
X5735878Y-4856835D01*
X5738723Y-4861153D01*
X5741466Y-4863846D01*
X5744006Y-4865217D01*
X5747461Y-4866284D01*
X5752846Y-4866995D01*
X5761228Y-4867503D01*
X5773572Y-4867757D01*
X5828842Y-4867757D01*
X5931916Y-4867198D01*
X5935421Y-4864912D01*
X5937148Y-4863490D01*
X5938672Y-4861509D01*
X5940044Y-4858867D01*
X5944006Y-4847640D01*
X5946546Y-4842256D01*
X5949391Y-4838344D01*
X5952998Y-4835042D01*
X5958332Y-4830978D01*
X5990640Y-4830826D01*
X5997092Y-4835296D01*
X6001258Y-4838598D01*
X6004001Y-4842052D01*
X6005576Y-4845812D01*
X6006134Y-4850231D01*
X6007049Y-4854702D01*
X6009436Y-4859223D01*
X6012738Y-4863185D01*
X6016498Y-4865725D01*
X6018580Y-4866233D01*
X6026759Y-4867046D01*
X6039104Y-4867605D01*
X6053937Y-4867910D01*
X6084671Y-4867706D01*
X6097422Y-4867198D01*
X6106261Y-4866386D01*
X6108700Y-4865878D01*
X6116472Y-4863642D01*
X6122771Y-4862271D01*
X6127242Y-4861864D01*
X6129375Y-4862423D01*
X6131560Y-4863947D01*
X6135268Y-4865725D01*
X6138875Y-4866894D01*
X6145276Y-4867503D01*
X6158433Y-4867706D01*
X6201867Y-4867656D01*
X6216396Y-4867300D01*
X6221984Y-4866944D01*
X6226657Y-4866335D01*
X6230366Y-4865420D01*
X6233312Y-4864252D01*
X6235598Y-4862728D01*
X6237224Y-4860747D01*
X6238341Y-4858308D01*
X6239052Y-4855413D01*
X6239459Y-4851908D01*
X6239560Y-4826000D01*
X6240424Y-4819294D01*
X6242659Y-4815535D01*
X6246774Y-4812944D01*
X6248857Y-4811979D01*
X6250228Y-4811572D01*
X6251194Y-4811725D01*
X6252006Y-4812385D01*
X6253886Y-4815027D01*
X6255715Y-4818684D01*
X6257340Y-4823053D01*
X6259626Y-4831638D01*
X6260896Y-4834788D01*
X6262776Y-4837836D01*
X6265570Y-4841443D01*
X6267704Y-4845253D01*
X6270701Y-4851654D01*
X6273952Y-4857851D01*
X6277508Y-4862271D01*
X6281775Y-4865166D01*
X6286957Y-4866741D01*
X6297879Y-4867300D01*
X6351524Y-4867859D01*
X6420713Y-4867706D01*
X6451041Y-4867402D01*
X6473139Y-4866944D01*
X6482994Y-4866335D01*
X6487261Y-4864252D01*
X6490716Y-4860594D01*
X6493459Y-4855159D01*
X6496710Y-4843272D01*
X6497980Y-4840376D01*
X6500164Y-4838090D01*
X6510274Y-4830978D01*
X6544106Y-4830775D01*
X6550812Y-4837176D01*
X6554063Y-4841544D01*
X6554978Y-4843373D01*
X6558991Y-4853381D01*
X6562344Y-4860137D01*
X6565493Y-4864252D01*
X6568795Y-4866436D01*
X6572300Y-4866995D01*
X6580378Y-4867402D01*
X6612839Y-4867706D01*
X6636410Y-4867656D01*
X6645097Y-4867452D01*
X6651955Y-4867046D01*
X6657136Y-4866335D01*
X6660845Y-4865217D01*
X6663283Y-4863693D01*
X6664553Y-4861610D01*
X6664858Y-4858969D01*
X6664401Y-4855667D01*
X6660184Y-4840376D01*
X6657949Y-4826812D01*
X6656527Y-4820920D01*
X6654850Y-4816043D01*
X6651447Y-4809236D01*
X6647738Y-4797907D01*
X6643624Y-4782921D01*
X6641185Y-4775301D01*
X6638544Y-4768392D01*
X6633311Y-4756810D01*
X6631330Y-4751578D01*
X6629908Y-4746498D01*
X6627520Y-4732883D01*
X6625996Y-4726127D01*
X6624167Y-4720488D01*
X6620509Y-4712004D01*
X6616852Y-4700625D01*
X6612077Y-4683201D01*
X6609892Y-4676394D01*
X6608064Y-4672330D01*
X6605981Y-4669688D01*
X6603492Y-4665573D01*
X6601002Y-4659172D01*
X6599072Y-4652213D01*
X6597650Y-4639513D01*
X6595973Y-4631639D01*
X6593789Y-4624628D01*
X6591553Y-4620209D01*
X6590131Y-4618888D01*
X6585610Y-4615789D01*
X6577126Y-4611624D01*
X6491884Y-4611268D01*
X6480860Y-4611573D01*
X6475120Y-4612436D01*
X6466382Y-4615332D01*
X6462217Y-4617923D01*
X6459778Y-4621326D01*
X6458407Y-4626152D01*
X6456578Y-4633823D01*
X6453835Y-4642459D01*
X6450533Y-4650994D01*
X6446012Y-4660747D01*
X6444081Y-4668367D01*
X6441287Y-4684776D01*
X6439001Y-4694275D01*
X6436461Y-4701489D01*
X6431534Y-4710074D01*
X6429857Y-4713782D01*
X6428384Y-4717999D01*
X6425387Y-4730292D01*
X6423152Y-4737557D01*
X6420358Y-4745177D01*
X6415481Y-4757267D01*
X6413150Y-4765954D01*
X6509410Y-4765954D01*
X6514439Y-4753711D01*
X6516217Y-4748784D01*
X6517640Y-4743754D01*
X6520332Y-4729124D01*
X6521907Y-4721707D01*
X6523481Y-4716119D01*
X6525259Y-4711801D01*
X6526987Y-4708804D01*
X6528460Y-4708855D01*
X6529933Y-4712360D01*
X6531864Y-4719777D01*
X6532727Y-4724146D01*
X6534200Y-4736439D01*
X6535166Y-4749088D01*
X6536639Y-4759756D01*
X6537452Y-4762906D01*
X6538010Y-4767427D01*
X6535826Y-4770678D01*
X6530898Y-4772609D01*
X6523278Y-4773218D01*
X6514338Y-4772660D01*
X6509867Y-4770475D01*
X6509410Y-4765954D01*
X6413150Y-4765954D01*
X6409994Y-4782058D01*
X6408369Y-4788611D01*
X6406540Y-4793437D01*
X6401765Y-4801717D01*
X6399733Y-4806797D01*
X6397650Y-4814112D01*
X6392316Y-4837226D01*
X6390386Y-4842865D01*
X6388455Y-4843627D01*
X6383832Y-4839462D01*
X6379768Y-4836464D01*
X6374942Y-4834077D01*
X6372860Y-4832400D01*
X6371031Y-4829556D01*
X6366764Y-4821428D01*
X6364732Y-4818329D01*
X6362649Y-4815636D01*
X6358788Y-4811572D01*
X6356604Y-4808575D01*
X6354419Y-4804968D01*
X6350457Y-4797094D01*
X6348272Y-4793284D01*
X6346037Y-4789982D01*
X6342227Y-4785512D01*
X6338468Y-4779924D01*
X6335725Y-4774438D01*
X6332474Y-4769307D01*
X6325717Y-4761534D01*
X6324142Y-4757623D01*
X6326225Y-4754727D01*
X6338620Y-4748834D01*
X6340348Y-4747514D01*
X6348222Y-4743602D01*
X6353048Y-4740605D01*
X6360820Y-4734509D01*
X6365138Y-4731512D01*
X6368338Y-4728362D01*
X6372606Y-4723333D01*
X6378397Y-4716018D01*
X6380581Y-4711547D01*
X6382105Y-4705096D01*
X6382969Y-4697323D01*
X6383172Y-4688840D01*
X6382715Y-4680407D01*
X6381597Y-4672584D01*
X6379921Y-4666132D01*
X6377584Y-4661662D01*
X6369304Y-4650994D01*
X6366154Y-4647387D01*
X6362141Y-4643577D01*
X6357416Y-4639665D01*
X6352286Y-4635855D01*
X6346901Y-4632248D01*
X6341465Y-4629048D01*
X6336284Y-4626406D01*
X6323330Y-4621174D01*
X6319113Y-4618685D01*
X6314643Y-4617161D01*
X6308496Y-4615891D01*
X6300520Y-4614773D01*
X6290665Y-4613808D01*
X6278778Y-4612995D01*
X6248298Y-4611928D01*
X6208115Y-4611370D01*
X6159042Y-4611268D01*
X6146038Y-4611725D01*
X6141567Y-4612132D01*
X6138113Y-4612741D01*
X6135420Y-4613452D01*
X6131255Y-4615434D01*
X6124549Y-4620158D01*
X6124690Y-4713833D01*
X6238748Y-4713833D01*
X6239357Y-4673142D01*
X6248755Y-4669891D01*
X6251498Y-4669536D01*
X6253734Y-4670196D01*
X6257950Y-4673193D01*
X6261252Y-4676241D01*
X6263589Y-4678832D01*
X6265468Y-4680508D01*
X6267653Y-4681931D01*
X6268923Y-4685131D01*
X6269786Y-4689957D01*
X6270091Y-4695952D01*
X6269990Y-4701336D01*
X6269380Y-4704740D01*
X6267754Y-4707483D01*
X6262065Y-4713427D01*
X6256985Y-4717542D01*
X6254953Y-4718812D01*
X6250889Y-4720742D01*
X6241745Y-4717338D01*
X6239865Y-4716272D01*
X6238951Y-4715154D01*
X6238748Y-4713833D01*
X6124690Y-4713833D01*
X6124702Y-4766868D01*
X6124346Y-4807305D01*
X6123889Y-4820615D01*
X6123178Y-4830267D01*
X6122162Y-4836972D01*
X6121552Y-4839411D01*
X6119977Y-4842916D01*
X6117945Y-4845202D01*
X6115456Y-4846929D01*
X6113373Y-4847539D01*
X6111595Y-4844999D01*
X6109360Y-4837582D01*
X6104432Y-4817364D01*
X6102858Y-4811776D01*
X6101384Y-4807458D01*
X6100216Y-4804867D01*
X6096508Y-4798415D01*
X6093663Y-4792421D01*
X6091936Y-4787138D01*
X6091326Y-4782870D01*
X6090716Y-4776063D01*
X6088989Y-4768088D01*
X6086602Y-4760163D01*
X6082030Y-4749698D01*
X6077966Y-4737455D01*
X6074105Y-4723688D01*
X6070092Y-4712004D01*
X6068466Y-4708601D01*
X6065164Y-4702810D01*
X6063030Y-4697628D01*
X6061506Y-4691329D01*
X6058306Y-4672787D01*
X6056376Y-4665116D01*
X6054242Y-4659528D01*
X6051600Y-4655464D01*
X6050127Y-4651400D01*
X6046876Y-4639411D01*
X6045200Y-4634382D01*
X6043168Y-4626102D01*
X6041593Y-4621479D01*
X6038596Y-4617770D01*
X6034074Y-4614824D01*
X6027978Y-4612640D01*
X6023152Y-4611827D01*
X6014618Y-4611370D01*
X5999022Y-4611217D01*
X5924245Y-4611624D01*
X5915101Y-4615840D01*
X5912459Y-4617618D01*
X5910376Y-4619802D01*
X5908700Y-4622749D01*
X5907278Y-4626762D01*
X5905957Y-4632147D01*
X5902248Y-4652619D01*
X5901029Y-4656328D01*
X5899454Y-4659782D01*
X5895289Y-4666589D01*
X5893511Y-4670348D01*
X5892038Y-4674311D01*
X5888278Y-4688789D01*
X5885332Y-4698339D01*
X5883960Y-4703876D01*
X5882487Y-4707940D01*
X5879795Y-4712004D01*
X5877610Y-4717745D01*
X5875477Y-4725720D01*
X5872226Y-4742230D01*
X5870752Y-4748225D01*
X5869279Y-4753152D01*
X5867857Y-4756556D01*
X5864860Y-4762703D01*
X5863847Y-4765243D01*
X5962802Y-4765243D01*
X5964377Y-4761026D01*
X5965850Y-4754321D01*
X5967171Y-4744974D01*
X5969660Y-4722926D01*
X5971336Y-4714189D01*
X5973165Y-4707940D01*
X5974791Y-4705553D01*
X5975705Y-4706823D01*
X5977331Y-4709922D01*
X5978398Y-4713020D01*
X5980734Y-4724552D01*
X5983071Y-4740452D01*
X5984443Y-4747107D01*
X5986018Y-4752492D01*
X5991301Y-4764684D01*
X5991707Y-4768748D01*
X5988812Y-4770882D01*
X5982055Y-4772355D01*
X5973826Y-4772761D01*
X5967069Y-4771440D01*
X5963005Y-4768799D01*
X5962802Y-4765243D01*
X5863847Y-4765243D01*
X5862066Y-4769713D01*
X5859221Y-4778146D01*
X5854496Y-4793691D01*
X5849924Y-4805172D01*
X5844590Y-4815992D01*
X5842101Y-4820361D01*
X5839866Y-4823663D01*
X5838037Y-4825492D01*
X5836818Y-4825949D01*
X5835599Y-4824984D01*
X5834024Y-4822190D01*
X5829503Y-4812487D01*
X5823864Y-4802632D01*
X5818479Y-4794605D01*
X5816193Y-4790592D01*
X5814415Y-4786884D01*
X5812332Y-4780788D01*
X5810961Y-4777790D01*
X5809183Y-4774946D01*
X5805017Y-4769612D01*
X5802782Y-4766208D01*
X5795568Y-4752340D01*
X5793892Y-4749850D01*
X5788964Y-4744313D01*
X5786374Y-4739792D01*
X5784799Y-4734915D01*
X5784291Y-4729886D01*
X5784799Y-4724958D01*
X5786323Y-4720285D01*
X5788863Y-4716119D01*
X5793892Y-4711293D01*
X5797702Y-4706162D01*
X5801563Y-4699812D01*
X5805982Y-4693462D01*
X5809742Y-4688890D01*
X5811621Y-4685944D01*
X5813348Y-4682693D01*
X5816803Y-4674412D01*
X5818682Y-4670806D01*
X5820816Y-4668113D01*
X5824778Y-4664506D01*
X5828030Y-4659680D01*
X5831332Y-4653635D01*
X5835650Y-4647082D01*
X5839714Y-4642002D01*
X5843524Y-4636211D01*
X5845911Y-4631080D01*
X5849721Y-4624476D01*
X5851093Y-4621631D01*
X5850890Y-4618837D01*
X5849010Y-4616145D01*
X5845606Y-4613503D01*
X5844438Y-4612894D01*
X5842863Y-4612436D01*
X5836869Y-4611827D01*
X5801106Y-4611319D01*
X5767628Y-4611471D01*
X5760008Y-4611878D01*
X5753811Y-4612538D01*
X5748883Y-4613503D01*
X5745022Y-4614773D01*
X5741974Y-4616500D01*
X5739587Y-4618634D01*
X5737656Y-4621276D01*
X5736031Y-4624527D01*
X5732780Y-4632147D01*
X5728766Y-4639462D01*
X5725109Y-4644694D01*
X5723026Y-4648403D01*
X5717692Y-4661001D01*
X5714238Y-4667605D01*
X5709513Y-4672634D01*
X5706567Y-4676800D01*
X5703976Y-4681931D01*
X5700166Y-4691888D01*
X5698998Y-4694428D01*
X5698083Y-4695799D01*
X5697423Y-4695850D01*
X5696458Y-4693970D01*
X5695696Y-4690922D01*
X5695035Y-4686655D01*
X5694273Y-4674819D01*
X5694121Y-4658918D01*
X5694680Y-4631690D01*
X5694527Y-4625949D01*
X5694019Y-4621733D01*
X5693156Y-4618786D01*
X5691784Y-4616653D01*
X5689904Y-4615027D01*
G37*
G36*
X5642051Y-4920234D02*
G01*
X5595620Y-4920792D01*
X5567984Y-4921351D01*
X5550052Y-4922266D01*
X5544667Y-4922977D01*
X5541416Y-4923840D01*
X5540044Y-4925009D01*
X5540451Y-4926431D01*
X5543854Y-4929632D01*
X5548020Y-4935169D01*
X5555030Y-4946802D01*
X5555030Y-5061204D01*
X5545886Y-5073040D01*
X5541060Y-5078831D01*
X5538520Y-5081524D01*
X5538063Y-5082438D01*
X5538368Y-5083200D01*
X5539689Y-5083810D01*
X5542229Y-5084318D01*
X5546293Y-5084724D01*
X5559653Y-5085232D01*
X5684215Y-5086146D01*
X5692495Y-5082997D01*
X5698896Y-5080254D01*
X5703163Y-5077358D01*
X5706059Y-5073548D01*
X5709869Y-5064861D01*
X5713171Y-5058765D01*
X5717235Y-5053380D01*
X5718200Y-5051348D01*
X5717743Y-5049723D01*
X5713425Y-5045811D01*
X5699556Y-5050790D01*
X5695340Y-5053076D01*
X5691530Y-5056022D01*
X5685078Y-5062220D01*
X5682335Y-5063845D01*
X5678728Y-5065064D01*
X5674055Y-5066030D01*
X5667857Y-5066690D01*
X5659932Y-5067198D01*
X5637631Y-5067706D01*
X5606389Y-5068112D01*
X5596940Y-5061864D01*
X5596940Y-5041849D01*
X5597245Y-5028133D01*
X5598210Y-5018024D01*
X5599836Y-5011267D01*
X5602173Y-5007660D01*
X5603798Y-5007051D01*
X5606846Y-5006543D01*
X5616295Y-5005984D01*
X5629046Y-5005984D01*
X5649061Y-5007000D01*
X5652465Y-5007711D01*
X5655056Y-5009184D01*
X5658154Y-5011928D01*
X5664250Y-5016093D01*
X5672175Y-5019802D01*
X5679541Y-5022138D01*
X5684164Y-5022240D01*
X5685739Y-5019751D01*
X5686704Y-5015077D01*
X5686907Y-5009540D01*
X5685840Y-5001615D01*
X5685790Y-4996129D01*
X5686602Y-4991049D01*
X5686653Y-4988509D01*
X5686348Y-4985969D01*
X5685637Y-4983378D01*
X5684266Y-4979822D01*
X5683148Y-4977942D01*
X5681929Y-4977536D01*
X5678982Y-4978755D01*
X5669076Y-4981295D01*
X5666536Y-4982311D01*
X5664301Y-4983784D01*
X5657799Y-4989677D01*
X5652668Y-4991709D01*
X5643880Y-4992573D01*
X5615533Y-4992827D01*
X5608066Y-4992624D01*
X5604002Y-4992014D01*
X5601106Y-4990846D01*
X5596940Y-4988763D01*
X5596940Y-4946142D01*
X5605576Y-4938014D01*
X5666079Y-4938826D01*
X5678271Y-4944618D01*
X5684977Y-4948428D01*
X5693257Y-4954168D01*
X5698845Y-4957622D01*
X5701639Y-4953406D01*
X5703925Y-4948021D01*
X5704586Y-4941773D01*
X5703620Y-4935474D01*
X5701030Y-4929886D01*
X5698794Y-4927142D01*
X5697423Y-4925974D01*
X5693867Y-4924044D01*
X5688736Y-4922520D01*
X5681522Y-4921453D01*
X5671667Y-4920691D01*
X5658713Y-4920335D01*
G37*
G36*
X6013754Y-4920335D02*
G01*
X6004864Y-4920488D01*
X5999734Y-4920996D01*
X5996228Y-4922012D01*
X5989777Y-4925212D01*
X5980938Y-4930444D01*
X5972759Y-4935829D01*
X5968238Y-4939436D01*
X5965799Y-4943957D01*
X5963107Y-4950714D01*
X5960973Y-4957673D01*
X5960059Y-4962550D01*
X5960973Y-4967630D01*
X5963208Y-4974640D01*
X5966053Y-4981549D01*
X5968847Y-4986477D01*
X5970778Y-4988356D01*
X5974029Y-4990846D01*
X5983122Y-4996789D01*
X5993231Y-5002530D01*
X5997702Y-5004714D01*
X6004255Y-5007305D01*
X6009030Y-5009438D01*
X6011773Y-5011115D01*
X6017514Y-5013502D01*
X6024930Y-5016195D01*
X6032500Y-5019395D01*
X6037935Y-5022240D01*
X6044946Y-5025186D01*
X6051600Y-5027422D01*
X6054445Y-5028641D01*
X6056579Y-5029860D01*
X6062726Y-5035346D01*
X6067755Y-5039207D01*
X6069685Y-5041239D01*
X6070955Y-5043576D01*
X6071971Y-5046573D01*
X6072632Y-5050790D01*
X6072225Y-5054600D01*
X6070701Y-5058003D01*
X6068060Y-5061102D01*
X6064148Y-5063947D01*
X6058966Y-5066538D01*
X6052464Y-5068976D01*
X6044539Y-5071262D01*
X6038850Y-5072532D01*
X6033617Y-5072735D01*
X6026912Y-5071770D01*
X6016599Y-5069484D01*
X6009182Y-5067503D01*
X6002680Y-5065318D01*
X5997092Y-5062829D01*
X5992368Y-5060086D01*
X5988456Y-5057038D01*
X5985357Y-5053685D01*
X5983020Y-5049977D01*
X5980582Y-5043525D01*
X5978499Y-5039360D01*
X5977483Y-5037988D01*
X5975146Y-5035600D01*
X5967628Y-5038242D01*
X5964275Y-5039766D01*
X5963513Y-5040325D01*
X5963005Y-5042357D01*
X5962700Y-5046624D01*
X5962751Y-5058867D01*
X5963412Y-5071313D01*
X5963920Y-5075732D01*
X5964580Y-5078069D01*
X5967120Y-5080508D01*
X5970828Y-5081930D01*
X5975654Y-5082336D01*
X5981547Y-5081676D01*
X5987440Y-5080711D01*
X5991453Y-5080558D01*
X5994908Y-5081320D01*
X6002578Y-5084419D01*
X6006084Y-5085537D01*
X6014262Y-5087112D01*
X6024524Y-5088077D01*
X6037580Y-5088382D01*
X6049162Y-5088229D01*
X6057646Y-5087467D01*
X6064199Y-5085994D01*
X6072225Y-5082540D01*
X6078016Y-5080304D01*
X6083808Y-5078374D01*
X6086246Y-5077206D01*
X6088176Y-5075936D01*
X6091072Y-5072888D01*
X6095695Y-5068874D01*
X6102045Y-5063794D01*
X6105042Y-5060086D01*
X6107379Y-5055971D01*
X6109055Y-5051501D01*
X6110071Y-5046827D01*
X6110376Y-5042001D01*
X6110071Y-5037226D01*
X6109055Y-5032502D01*
X6107430Y-5028031D01*
X6105093Y-5023866D01*
X6102096Y-5020106D01*
X6098438Y-5016957D01*
X6093561Y-5013198D01*
X6089243Y-5009489D01*
X6086957Y-5007813D01*
X6083706Y-5005832D01*
X6068822Y-4999024D01*
X6063234Y-4995926D01*
X6057493Y-4993640D01*
X6050026Y-4991100D01*
X6041847Y-4987798D01*
X6035548Y-4984800D01*
X6028740Y-4981956D01*
X6023000Y-4980025D01*
X6016853Y-4977333D01*
X6012078Y-4974590D01*
X6008217Y-4972862D01*
X6004661Y-4971948D01*
X6002172Y-4970119D01*
X5999683Y-4967020D01*
X5997194Y-4962702D01*
X5994908Y-4956556D01*
X5994857Y-4951272D01*
X5997143Y-4946853D01*
X6001715Y-4943043D01*
X6007912Y-4939487D01*
X6013551Y-4936896D01*
X6018885Y-4935220D01*
X6024168Y-4934407D01*
X6029655Y-4934458D01*
X6035598Y-4935372D01*
X6042202Y-4937150D01*
X6056071Y-4942128D01*
X6061049Y-4944262D01*
X6064910Y-4946294D01*
X6067958Y-4948478D01*
X6070396Y-4951069D01*
X6072428Y-4954219D01*
X6078677Y-4967528D01*
X6081115Y-4969764D01*
X6084722Y-4970322D01*
X6090310Y-4969611D01*
X6094222Y-4968798D01*
X6096355Y-4968087D01*
X6097168Y-4967173D01*
X6095187Y-4938877D01*
X6094069Y-4928616D01*
X6093561Y-4926584D01*
X6090920Y-4924704D01*
X6086449Y-4923688D01*
X6080810Y-4923485D01*
X6074613Y-4924247D01*
X6070244Y-4925060D01*
X6067450Y-4925212D01*
X6064961Y-4924602D01*
X6057900Y-4921707D01*
X6053124Y-4920894D01*
X6044387Y-4920538D01*
G37*
G36*
X5484723Y-4920538D02*
G01*
X5477052Y-4920691D01*
X5470194Y-4921199D01*
X5464606Y-4922062D01*
X5460847Y-4923383D01*
X5457190Y-4925364D01*
X5461406Y-4933696D01*
X5464911Y-4939334D01*
X5470398Y-4946548D01*
X5466029Y-4951018D01*
X5463997Y-4953457D01*
X5462371Y-4956098D01*
X5461101Y-4959045D01*
X5458206Y-4969306D01*
X5456174Y-4974691D01*
X5453989Y-4978450D01*
X5451602Y-4980736D01*
X5448960Y-4982718D01*
X5446776Y-4985258D01*
X5444794Y-4988712D01*
X5441340Y-4996484D01*
X5437530Y-5003088D01*
X5432247Y-5010912D01*
X5429910Y-5015992D01*
X5428437Y-5021173D01*
X5427726Y-5028184D01*
X5427167Y-5030063D01*
X5426252Y-5031892D01*
X5423408Y-5035296D01*
X5422138Y-5036058D01*
X5420715Y-5035905D01*
X5418480Y-5035042D01*
X5411520Y-5031333D01*
X5406186Y-5026863D01*
X5402376Y-5021529D01*
X5400090Y-5015331D01*
X5398668Y-5010099D01*
X5396890Y-5005882D01*
X5394553Y-5002123D01*
X5389524Y-4996078D01*
X5387492Y-4993030D01*
X5382361Y-4983175D01*
X5379161Y-4978247D01*
X5375097Y-4974488D01*
X5372354Y-4970526D01*
X5369864Y-4965750D01*
X5367223Y-4958080D01*
X5364581Y-4952644D01*
X5359704Y-4945989D01*
X5370677Y-4930444D01*
X5374843Y-4925060D01*
X5368950Y-4923129D01*
X5366308Y-4922570D01*
X5357317Y-4921605D01*
X5345023Y-4920996D01*
X5331409Y-4920691D01*
X5318404Y-4920843D01*
X5308041Y-4921402D01*
X5304434Y-4921859D01*
X5298236Y-4923180D01*
X5295188Y-4924552D01*
X5294934Y-4926330D01*
X5300421Y-4931816D01*
X5304078Y-4936337D01*
X5308396Y-4939842D01*
X5314289Y-4943449D01*
X5316575Y-4945430D01*
X5318201Y-4947716D01*
X5321909Y-4955540D01*
X5324551Y-4959756D01*
X5327091Y-4962804D01*
X5328970Y-4964023D01*
X5330342Y-4965547D01*
X5332628Y-4969510D01*
X5335270Y-4975199D01*
X5339029Y-4984140D01*
X5341924Y-4989271D01*
X5344820Y-4993081D01*
X5347817Y-4997907D01*
X5351576Y-5004968D01*
X5354269Y-5009184D01*
X5357063Y-5012639D01*
X5359806Y-5015179D01*
X5361127Y-5016703D01*
X5364480Y-5022799D01*
X5367680Y-5030622D01*
X5371642Y-5038191D01*
X5375249Y-5043271D01*
X5379364Y-5049977D01*
X5382869Y-5056733D01*
X5384800Y-5059832D01*
X5386730Y-5062423D01*
X5389880Y-5065572D01*
X5393080Y-5069840D01*
X5396636Y-5076291D01*
X5398668Y-5079441D01*
X5400751Y-5081828D01*
X5403240Y-5083911D01*
X5405577Y-5085486D01*
X5407558Y-5085842D01*
X5410098Y-5084927D01*
X5414060Y-5082590D01*
X5419648Y-5078526D01*
X5423865Y-5073954D01*
X5427116Y-5068163D01*
X5432196Y-5053888D01*
X5434177Y-5049367D01*
X5436006Y-5046827D01*
X5439918Y-5044998D01*
X5442356Y-5042204D01*
X5444794Y-5038140D01*
X5448147Y-5030165D01*
X5449925Y-5026710D01*
X5456174Y-5017516D01*
X5458155Y-5013909D01*
X5459933Y-5009997D01*
X5462625Y-5002123D01*
X5464048Y-4998872D01*
X5465521Y-4996281D01*
X5466943Y-4994656D01*
X5470804Y-4991150D01*
X5473395Y-4988102D01*
X5475427Y-4984445D01*
X5479237Y-4975402D01*
X5482844Y-4968849D01*
X5487111Y-4963566D01*
X5489143Y-4960112D01*
X5490616Y-4956251D01*
X5491632Y-4951577D01*
X5492800Y-4947462D01*
X5494731Y-4944160D01*
X5497169Y-4941925D01*
X5502605Y-4940350D01*
X5506059Y-4938623D01*
X5509056Y-4936540D01*
X5510377Y-4934966D01*
X5511342Y-4932832D01*
X5517134Y-4925060D01*
X5512714Y-4923637D01*
X5507126Y-4922316D01*
X5500268Y-4921351D01*
X5492648Y-4920742D01*
G37*
G36*
X6317183Y-4920640D02*
G01*
X6262878Y-4921046D01*
X6258610Y-4921250D01*
X6252870Y-4922062D01*
X6248755Y-4923332D01*
X6245758Y-4925314D01*
X6243370Y-4928311D01*
X6240221Y-4935677D01*
X6239713Y-4943297D01*
X6241745Y-4950256D01*
X6246266Y-4955641D01*
X6249568Y-4957572D01*
X6252260Y-4957572D01*
X6254648Y-4955438D01*
X6259423Y-4947005D01*
X6262522Y-4944262D01*
X6267094Y-4942332D01*
X6273901Y-4940808D01*
X6279997Y-4939944D01*
X6286246Y-4939487D01*
X6292443Y-4939436D01*
X6298336Y-4939741D01*
X6303670Y-4940401D01*
X6308191Y-4941417D01*
X6311646Y-4942687D01*
X6313779Y-4944262D01*
X6314236Y-4945481D01*
X6314795Y-4952288D01*
X6315049Y-4966360D01*
X6314948Y-4989525D01*
X6314084Y-5063693D01*
X6305753Y-5069027D01*
X6301943Y-5072684D01*
X6300216Y-5075682D01*
X6297980Y-5078882D01*
X6293815Y-5083048D01*
X6299047Y-5084318D01*
X6305753Y-5085080D01*
X6317030Y-5085486D01*
X6330797Y-5085638D01*
X6344818Y-5085486D01*
X6356858Y-5085029D01*
X6364782Y-5084267D01*
X6372250Y-5082997D01*
X6368186Y-5079847D01*
X6365189Y-5076596D01*
X6362547Y-5073294D01*
X6360363Y-5071160D01*
X6359042Y-5070449D01*
X6356858Y-5068163D01*
X6355588Y-5066487D01*
X6354876Y-5064709D01*
X6353708Y-5057089D01*
X6352844Y-5044998D01*
X6352286Y-5029758D01*
X6351981Y-5012690D01*
X6351981Y-4995011D01*
X6352235Y-4978044D01*
X6352844Y-4962956D01*
X6353708Y-4951171D01*
X6354216Y-4946853D01*
X6354826Y-4943856D01*
X6355537Y-4942281D01*
X6358534Y-4938928D01*
X6372809Y-4939487D01*
X6384442Y-4940350D01*
X6395262Y-4941824D01*
X6403848Y-4943703D01*
X6408724Y-4945684D01*
X6409740Y-4946700D01*
X6412077Y-4950155D01*
X6415481Y-4956302D01*
X6417868Y-4958638D01*
X6420510Y-4959299D01*
X6423456Y-4958384D01*
X6426098Y-4955895D01*
X6427673Y-4951476D01*
X6428333Y-4945176D01*
X6427317Y-4931460D01*
X6426758Y-4929276D01*
X6425895Y-4927346D01*
X6424523Y-4925771D01*
X6422542Y-4924450D01*
X6419799Y-4923383D01*
X6416090Y-4922520D01*
X6405422Y-4921402D01*
X6389319Y-4920843D01*
X6366662Y-4920640D01*
G37*
G36*
X6630873Y-4920640D02*
G01*
X6614363Y-4920945D01*
X6604965Y-4921758D01*
X6598615Y-4923028D01*
X6595414Y-4924704D01*
X6595516Y-4926838D01*
X6597497Y-4930648D01*
X6602222Y-4942332D01*
X6602933Y-4945278D01*
X6602526Y-4947158D01*
X6599783Y-4950714D01*
X6597192Y-4954930D01*
X6594957Y-4959248D01*
X6593179Y-4961636D01*
X6590995Y-4963972D01*
X6586270Y-4968087D01*
X6581038Y-4973523D01*
X6577075Y-4978450D01*
X6574028Y-4981651D01*
X6572250Y-4982667D01*
X6568490Y-4986172D01*
X6561937Y-4993538D01*
X6559245Y-4995468D01*
X6556857Y-4994808D01*
X6551371Y-4989830D01*
X6541160Y-4981854D01*
X6539077Y-4979771D01*
X6537401Y-4977485D01*
X6534810Y-4972608D01*
X6533083Y-4970119D01*
X6531051Y-4967732D01*
X6522872Y-4959959D01*
X6520078Y-4956606D01*
X6516014Y-4952593D01*
X6509308Y-4946599D01*
X6508902Y-4946040D01*
X6509512Y-4941570D01*
X6511188Y-4937252D01*
X6513779Y-4933238D01*
X6517182Y-4929886D01*
X6522821Y-4925415D01*
X6517589Y-4923485D01*
X6514642Y-4922774D01*
X6504025Y-4921758D01*
X6489446Y-4921148D01*
X6473596Y-4920996D01*
X6459270Y-4921402D01*
X6453479Y-4921758D01*
X6449110Y-4922266D01*
X6446469Y-4922926D01*
X6441998Y-4924806D01*
X6444742Y-4930292D01*
X6447282Y-4934508D01*
X6450380Y-4937709D01*
X6454749Y-4940401D01*
X6464909Y-4944770D01*
X6467500Y-4946446D01*
X6469430Y-4948682D01*
X6473037Y-4954981D01*
X6475171Y-4957826D01*
X6477457Y-4960416D01*
X6481927Y-4964328D01*
X6486296Y-4968697D01*
X6489496Y-4972608D01*
X6493306Y-4976520D01*
X6498386Y-4980990D01*
X6501333Y-4984343D01*
X6503670Y-4987747D01*
X6505803Y-4992065D01*
X6508038Y-4994859D01*
X6510985Y-4997551D01*
X6518452Y-5005679D01*
X6522974Y-5009997D01*
X6529374Y-5015331D01*
X6531660Y-5019649D01*
X6532524Y-5027269D01*
X6532626Y-5040782D01*
X6532422Y-5054904D01*
X6531356Y-5062982D01*
X6528866Y-5067096D01*
X6522313Y-5070297D01*
X6520383Y-5071618D01*
X6518656Y-5073243D01*
X6515862Y-5076799D01*
X6513271Y-5079644D01*
X6510578Y-5081625D01*
X6510324Y-5082641D01*
X6511544Y-5083505D01*
X6514439Y-5084165D01*
X6519113Y-5084673D01*
X6534404Y-5085384D01*
X6558686Y-5085689D01*
X6569506Y-5085638D01*
X6577888Y-5085334D01*
X6584035Y-5084775D01*
X6588048Y-5083962D01*
X6590080Y-5082844D01*
X6590334Y-5081422D01*
X6589014Y-5079644D01*
X6586321Y-5076901D01*
X6582714Y-5072786D01*
X6579209Y-5070551D01*
X6572148Y-5067554D01*
X6569202Y-5063083D01*
X6567881Y-5054701D01*
X6567576Y-5040579D01*
X6567881Y-5026914D01*
X6569100Y-5018379D01*
X6571843Y-5013045D01*
X6578193Y-5007508D01*
X6581800Y-5003698D01*
X6585051Y-4999634D01*
X6588810Y-4995875D01*
X6592163Y-4993182D01*
X6596024Y-4988356D01*
X6599478Y-4982718D01*
X6601510Y-4979924D01*
X6603542Y-4977587D01*
X6607149Y-4974386D01*
X6611010Y-4970068D01*
X6614414Y-4965547D01*
X6616547Y-4963160D01*
X6623405Y-4957622D01*
X6625234Y-4955743D01*
X6626656Y-4953660D01*
X6629400Y-4947412D01*
X6631686Y-4944719D01*
X6635089Y-4942687D01*
X6642862Y-4940046D01*
X6647992Y-4937963D01*
X6649770Y-4936998D01*
X6653072Y-4934204D01*
X6656324Y-4930444D01*
X6658609Y-4926939D01*
X6659016Y-4924856D01*
X6657136Y-4923637D01*
X6654038Y-4922621D01*
X6649720Y-4921808D01*
X6644386Y-4921199D01*
X6638036Y-4920792D01*
G37*
G36*
X5793130Y-4920691D02*
G01*
X5771540Y-4920996D01*
X5751525Y-4921808D01*
X5744819Y-4922469D01*
X5740247Y-4923282D01*
X5737656Y-4924298D01*
X5736894Y-4925568D01*
X5737910Y-4927092D01*
X5742584Y-4930444D01*
X5744921Y-4932832D01*
X5749696Y-4939284D01*
X5754776Y-4947412D01*
X5754776Y-4989017D01*
X5796635Y-4989017D01*
X5796635Y-4945938D01*
X5800902Y-4942636D01*
X5806033Y-4939792D01*
X5812332Y-4938471D01*
X5820308Y-4938623D01*
X5830468Y-4940198D01*
X5837936Y-4942281D01*
X5844387Y-4945227D01*
X5849823Y-4949139D01*
X5854242Y-4953965D01*
X5856935Y-4961432D01*
X5857036Y-4970780D01*
X5854903Y-4978755D01*
X5850940Y-4982108D01*
X5849315Y-4983175D01*
X5843625Y-4988814D01*
X5840120Y-4991252D01*
X5836716Y-4992928D01*
X5828233Y-4994300D01*
X5819800Y-4995976D01*
X5811723Y-4997856D01*
X5806135Y-4999431D01*
X5804865Y-4998821D01*
X5803239Y-4997246D01*
X5796635Y-4989017D01*
X5754776Y-4989017D01*
X5754776Y-5061204D01*
X5745581Y-5073040D01*
X5740704Y-5078730D01*
X5737860Y-5081676D01*
X5737707Y-5082794D01*
X5738926Y-5083657D01*
X5741822Y-5084318D01*
X5746546Y-5084826D01*
X5762548Y-5085384D01*
X5784596Y-5085689D01*
X5800191Y-5085486D01*
X5809843Y-5084775D01*
X5812637Y-5084216D01*
X5814314Y-5083505D01*
X5814822Y-5082590D01*
X5813856Y-5081117D01*
X5806948Y-5073040D01*
X5796686Y-5061762D01*
X5796635Y-5018938D01*
X5805424Y-5012791D01*
X5812739Y-5016550D01*
X5815990Y-5018430D01*
X5822696Y-5023358D01*
X5827725Y-5028184D01*
X5833364Y-5032959D01*
X5837986Y-5036413D01*
X5840018Y-5038293D01*
X5841695Y-5040223D01*
X5843879Y-5043678D01*
X5847537Y-5048199D01*
X5855614Y-5056124D01*
X5857798Y-5058613D01*
X5861812Y-5062067D01*
X5866790Y-5065979D01*
X5872073Y-5071160D01*
X5876696Y-5076494D01*
X5879236Y-5078526D01*
X5882640Y-5080203D01*
X5887872Y-5082032D01*
X5895035Y-5083860D01*
X5903264Y-5085130D01*
X5911850Y-5085842D01*
X5920130Y-5086045D01*
X5927445Y-5085740D01*
X5933186Y-5084876D01*
X5936589Y-5083505D01*
X5937097Y-5081574D01*
X5934710Y-5075936D01*
X5932881Y-5072888D01*
X5929782Y-5070449D01*
X5925159Y-5068570D01*
X5913882Y-5065877D01*
X5909665Y-5064201D01*
X5906719Y-5062423D01*
X5905144Y-5059984D01*
X5902248Y-5057343D01*
X5897829Y-5054142D01*
X5893765Y-5050282D01*
X5891225Y-5046827D01*
X5887212Y-5042712D01*
X5882589Y-5038801D01*
X5877814Y-5033873D01*
X5874308Y-5029403D01*
X5870702Y-5025694D01*
X5867857Y-5023510D01*
X5864707Y-5020462D01*
X5858764Y-5013452D01*
X5853938Y-5008981D01*
X5861964Y-5005832D01*
X5870702Y-5001869D01*
X5879642Y-4996789D01*
X5887212Y-4991658D01*
X5891885Y-4987391D01*
X5895187Y-4983480D01*
X5901436Y-4976977D01*
X5902706Y-4974640D01*
X5903214Y-4971389D01*
X5903112Y-4960772D01*
X5902452Y-4957165D01*
X5900877Y-4953965D01*
X5897981Y-4949901D01*
X5893003Y-4944262D01*
X5890564Y-4941925D01*
X5874461Y-4931308D01*
X5871057Y-4929632D01*
X5867501Y-4928311D01*
X5855766Y-4925263D01*
X5852464Y-4924044D01*
X5849315Y-4923282D01*
X5840323Y-4922062D01*
X5827776Y-4921199D01*
X5811977Y-4920742D01*
G37*
G36*
X4745736Y-4920945D02*
G01*
X4731410Y-4921402D01*
X4725568Y-4921910D01*
X4720996Y-4922570D01*
X4716119Y-4923840D01*
X4713579Y-4924907D01*
X4714189Y-4926533D01*
X4717034Y-4929530D01*
X4721504Y-4933238D01*
X4731258Y-4940147D01*
X4732782Y-4941570D01*
X4734001Y-4943348D01*
X4734966Y-4945634D01*
X4735626Y-4948732D01*
X4736388Y-4958232D01*
X4736642Y-4973726D01*
X4736693Y-5020868D01*
X4736998Y-5037074D01*
X4737811Y-5047589D01*
X4738522Y-5051247D01*
X4739386Y-5054193D01*
X4740554Y-5056581D01*
X4741976Y-5058714D01*
X4745837Y-5062880D01*
X4749393Y-5066284D01*
X4753051Y-5069382D01*
X4756861Y-5072227D01*
X4765192Y-5077256D01*
X4769815Y-5079492D01*
X4780026Y-5083556D01*
X4793437Y-5088178D01*
X4819904Y-5088788D01*
X4835855Y-5088534D01*
X4842611Y-5088178D01*
X4848402Y-5087620D01*
X4853279Y-5086858D01*
X4857140Y-5085994D01*
X4869637Y-5080812D01*
X4880660Y-5076799D01*
X4885740Y-5074208D01*
X4889855Y-5071008D01*
X4896256Y-5064099D01*
X4900574Y-5059781D01*
X4903927Y-5056835D01*
X4905451Y-5054854D01*
X4906772Y-5052415D01*
X4907889Y-5049367D01*
X4908804Y-5045557D01*
X4910124Y-5035296D01*
X4910886Y-5020665D01*
X4911191Y-5000701D01*
X4911242Y-4946040D01*
X4918456Y-4940046D01*
X4922266Y-4936083D01*
X4925923Y-4931003D01*
X4928616Y-4928971D01*
X4932273Y-4928006D01*
X4937607Y-4927752D01*
X4942128Y-4927854D01*
X4944922Y-4928311D01*
X4947056Y-4929530D01*
X4951933Y-4933848D01*
X4959858Y-4938674D01*
X4968798Y-4943144D01*
X4974691Y-4946700D01*
X4975656Y-4947716D01*
X4975148Y-5061559D01*
X4968189Y-5067858D01*
X4964785Y-5071465D01*
X4960315Y-5077155D01*
X4957064Y-5080762D01*
X4956302Y-5082082D01*
X4956606Y-5082997D01*
X4957826Y-5083962D01*
X4960670Y-5084673D01*
X4966360Y-5085181D01*
X4982870Y-5085689D01*
X5000345Y-5085384D01*
X5007305Y-5084978D01*
X5011928Y-5084368D01*
X5016957Y-5083149D01*
X5012436Y-5076799D01*
X5010708Y-5073802D01*
X5010302Y-5072481D01*
X5009540Y-5071872D01*
X5008168Y-5071364D01*
X5005171Y-5068722D01*
X4999228Y-5061762D01*
X4999228Y-4977485D01*
X5002936Y-4974437D01*
X5005679Y-4972608D01*
X5007864Y-4972558D01*
X5010150Y-4974488D01*
X5014569Y-4980482D01*
X5018278Y-4984292D01*
X5027015Y-4991709D01*
X5034076Y-4998618D01*
X5040071Y-5003952D01*
X5058511Y-5018887D01*
X5060086Y-5020411D01*
X5061102Y-5021935D01*
X5063947Y-5024628D01*
X5068366Y-5028133D01*
X5072786Y-5032298D01*
X5075631Y-5035753D01*
X5078780Y-5038801D01*
X5081778Y-5040884D01*
X5085689Y-5044186D01*
X5089855Y-5048148D01*
X5096103Y-5053380D01*
X5102199Y-5058054D01*
X5106162Y-5061508D01*
X5107279Y-5063032D01*
X5110784Y-5066233D01*
X5116118Y-5070500D01*
X5120894Y-5074767D01*
X5124907Y-5078831D01*
X5128310Y-5080660D01*
X5132679Y-5081879D01*
X5140350Y-5082743D01*
X5143449Y-5082743D01*
X5144668Y-5082387D01*
X5145684Y-5081625D01*
X5146548Y-5080304D01*
X5147259Y-5078323D01*
X5148275Y-5071973D01*
X5148884Y-5061559D01*
X5149494Y-5024882D01*
X5150307Y-4946345D01*
X5157114Y-4935016D01*
X5161280Y-4929581D01*
X5164632Y-4926126D01*
X5164074Y-4924501D01*
X5160873Y-4923129D01*
X5155031Y-4921961D01*
X5150205Y-4921453D01*
X5137454Y-4921097D01*
X5123738Y-4921554D01*
X5117642Y-4922062D01*
X5112613Y-4922723D01*
X5109159Y-4923485D01*
X5103926Y-4925263D01*
X5109464Y-4929124D01*
X5112054Y-4931206D01*
X5114493Y-4933696D01*
X5116677Y-4936439D01*
X5122113Y-4945938D01*
X5122113Y-5021173D01*
X5114290Y-5027168D01*
X5104434Y-5016042D01*
X5101742Y-5013909D01*
X5098846Y-5012232D01*
X5094884Y-5008626D01*
X5091023Y-5004358D01*
X5087620Y-5001209D01*
X5085334Y-4999990D01*
X5081930Y-4997094D01*
X5077917Y-4992878D01*
X5072380Y-4987950D01*
X5067147Y-4983886D01*
X5062118Y-4979568D01*
X5056784Y-4974437D01*
X5051501Y-4970475D01*
X5047996Y-4967020D01*
X5045151Y-4963464D01*
X5041798Y-4960467D01*
X5038750Y-4958638D01*
X5034991Y-4955489D01*
X5031384Y-4951628D01*
X5026507Y-4947107D01*
X5021681Y-4943246D01*
X5016601Y-4938725D01*
X5014620Y-4936693D01*
X5009489Y-4932426D01*
X5002326Y-4927854D01*
X4994910Y-4924044D01*
X4988915Y-4921910D01*
X4980990Y-4921250D01*
X4969764Y-4921148D01*
X4958638Y-4921605D01*
X4954168Y-4922012D01*
X4944872Y-4923536D01*
X4937658Y-4923840D01*
X4930190Y-4923536D01*
X4916881Y-4921605D01*
X4908956Y-4921148D01*
X4900168Y-4920996D01*
X4891125Y-4921250D01*
X4882642Y-4921808D01*
X4875377Y-4922621D01*
X4869942Y-4923688D01*
X4867198Y-4924958D01*
X4867300Y-4925669D01*
X4868214Y-4926888D01*
X4876038Y-4933391D01*
X4878679Y-4936134D01*
X4881016Y-4937252D01*
X4884267Y-4939182D01*
X4887417Y-4942179D01*
X4888382Y-4943500D01*
X4889144Y-4945024D01*
X4889652Y-4947462D01*
X4890008Y-4951272D01*
X4890211Y-4965496D01*
X4889804Y-5014112D01*
X4889398Y-5028438D01*
X4888992Y-5033467D01*
X4888382Y-5037480D01*
X4887518Y-5040630D01*
X4886299Y-5043220D01*
X4884724Y-5045557D01*
X4880305Y-5050383D01*
X4872431Y-5058156D01*
X4868672Y-5061204D01*
X4864963Y-5063236D01*
X4860239Y-5065014D01*
X4852009Y-5067604D01*
X4844237Y-5069484D01*
X4836820Y-5070652D01*
X4829606Y-5071211D01*
X4822393Y-5071110D01*
X4815078Y-5070297D01*
X4807508Y-5068874D01*
X4799482Y-5066842D01*
X4793335Y-5064963D01*
X4789728Y-5063490D01*
X4787493Y-5061762D01*
X4783988Y-5057343D01*
X4780737Y-5053939D01*
X4777333Y-5050840D01*
X4775758Y-5048351D01*
X4774539Y-5044694D01*
X4773676Y-5039461D01*
X4773015Y-5032095D01*
X4772202Y-5009286D01*
X4771694Y-4966766D01*
X4772152Y-4944364D01*
X4772964Y-4943094D01*
X4776622Y-4939639D01*
X4785055Y-4933391D01*
X4789779Y-4929479D01*
X4792675Y-4926533D01*
X4793234Y-4924907D01*
X4791405Y-4923993D01*
X4787747Y-4923231D01*
X4776368Y-4921910D01*
X4761534Y-4921148D01*
G37*
G36*
X5232552Y-4921046D02*
G01*
X5218226Y-4921250D01*
X5206136Y-4921961D01*
X5201615Y-4922520D01*
X5198567Y-4923231D01*
X5191912Y-4925364D01*
X5206085Y-4936236D01*
X5207660Y-4937760D01*
X5208930Y-4939385D01*
X5209997Y-4941316D01*
X5210860Y-4943652D01*
X5211521Y-4946548D01*
X5212384Y-4954371D01*
X5212740Y-4965852D01*
X5212842Y-5037582D01*
X5212486Y-5055362D01*
X5212130Y-5060086D01*
X5211622Y-5062982D01*
X5210911Y-5064760D01*
X5208524Y-5067554D01*
X5205171Y-5070144D01*
X5202326Y-5071465D01*
X5200599Y-5072684D01*
X5200040Y-5074005D01*
X5198313Y-5076952D01*
X5193690Y-5083251D01*
X5200853Y-5084622D01*
X5208117Y-5085283D01*
X5219954Y-5085638D01*
X5234025Y-5085689D01*
X5248046Y-5085435D01*
X5259730Y-5084927D01*
X5266740Y-5084165D01*
X5271363Y-5083098D01*
X5266639Y-5076139D01*
X5263997Y-5071313D01*
X5260289Y-5068570D01*
X5250586Y-5062880D01*
X5250586Y-4945126D01*
X5258358Y-4938623D01*
X5261305Y-4935575D01*
X5262118Y-4934000D01*
X5264658Y-4931105D01*
X5271262Y-4925161D01*
X5266131Y-4923383D01*
X5263184Y-4922672D01*
X5253228Y-4921656D01*
X5239816Y-4921097D01*
G37*
G36*
X6180429Y-4921148D02*
G01*
X6161786Y-4921351D01*
X6152794Y-4921707D01*
X6146698Y-4923180D01*
X6143040Y-4924450D01*
X6141618Y-4925618D01*
X6142228Y-4926736D01*
X6144768Y-4929479D01*
X6151473Y-4938725D01*
X6155080Y-4942636D01*
X6158687Y-4945888D01*
X6158230Y-5061356D01*
X6150457Y-5068519D01*
X6148374Y-5070805D01*
X6145834Y-5074615D01*
X6144209Y-5077612D01*
X6141008Y-5081574D01*
X6140856Y-5082743D01*
X6142024Y-5083606D01*
X6144818Y-5084267D01*
X6149492Y-5084775D01*
X6165596Y-5085384D01*
X6190538Y-5085740D01*
X6199784Y-5085638D01*
X6206236Y-5085283D01*
X6210909Y-5084622D01*
X6218072Y-5083251D01*
X6213449Y-5076952D01*
X6211722Y-5074005D01*
X6211163Y-5072684D01*
X6209284Y-5071414D01*
X6206337Y-5070043D01*
X6202883Y-5067554D01*
X6200749Y-5065318D01*
X6199733Y-5063185D01*
X6199073Y-5059070D01*
X6198717Y-5051145D01*
X6198920Y-4944770D01*
X6202273Y-4940300D01*
X6206693Y-4935575D01*
X6212687Y-4930495D01*
X6219748Y-4925110D01*
X6212890Y-4923078D01*
X6208471Y-4922012D01*
X6202984Y-4921402D01*
G37*
G36*
X4963922Y-5282031D02*
G01*
X4952238Y-5282285D01*
X4940300Y-5283200D01*
X4924958Y-5284774D01*
X4913426Y-5286197D01*
X4904994Y-5287568D01*
X4888890Y-5291074D01*
X4874463Y-5293664D01*
X4863084Y-5295950D01*
X4852974Y-5298744D01*
X4848555Y-5300319D01*
X4844592Y-5301996D01*
X4841138Y-5303723D01*
X4837074Y-5306110D01*
X4832604Y-5307736D01*
X4817008Y-5312410D01*
X4812995Y-5313984D01*
X4797653Y-5324043D01*
X4795723Y-5324906D01*
X4790236Y-5326227D01*
X4783074Y-5329174D01*
X4775606Y-5332831D01*
X4764379Y-5339994D01*
X4755591Y-5344414D01*
X4748022Y-5349392D01*
X4736287Y-5358638D01*
X4732324Y-5361381D01*
X4726432Y-5366258D01*
X4720742Y-5371338D01*
X4718202Y-5373979D01*
X4717186Y-5375503D01*
X4694123Y-5398160D01*
X4692396Y-5400700D01*
X4691634Y-5402834D01*
X4690211Y-5404662D01*
X4682591Y-5412079D01*
X4679594Y-5415584D01*
X4676851Y-5419242D01*
X4672736Y-5426049D01*
X4670298Y-5429453D01*
X4667707Y-5432501D01*
X4662140Y-5437936D01*
X4796180Y-5437936D01*
X4803190Y-5432044D01*
X5061204Y-5432501D01*
X5114645Y-5432958D01*
X5126431Y-5433415D01*
X5132171Y-5434076D01*
X5134610Y-5434990D01*
X5136845Y-5436311D01*
X5139944Y-5437733D01*
X5140909Y-5437936D01*
X5141264Y-5439562D01*
X5141620Y-5444337D01*
X5142128Y-5463743D01*
X5142382Y-5496814D01*
X5142433Y-5603798D01*
X5142179Y-5631738D01*
X5141620Y-5647283D01*
X5140604Y-5655411D01*
X5136591Y-5669991D01*
X5136134Y-5673598D01*
X5134610Y-5679744D01*
X5129682Y-5695289D01*
X5128971Y-5696915D01*
X5125720Y-5701131D01*
X5121198Y-5705703D01*
X5115509Y-5713425D01*
X5108905Y-5724093D01*
X5104739Y-5729528D01*
X5101082Y-5733288D01*
X5097830Y-5734964D01*
X5096205Y-5736894D01*
X5092090Y-5743803D01*
X5088636Y-5747969D01*
X5084572Y-5751118D01*
X5075732Y-5755386D01*
X5068163Y-5759602D01*
X5057495Y-5767171D01*
X5053177Y-5768848D01*
X5045760Y-5771184D01*
X5038242Y-5773216D01*
X5031841Y-5774537D01*
X5024526Y-5777839D01*
X5008473Y-5786475D01*
X4946040Y-5786424D01*
X4936185Y-5786018D01*
X4929124Y-5784951D01*
X4922977Y-5782919D01*
X4911191Y-5777484D01*
X4902708Y-5774334D01*
X4885486Y-5769711D01*
X4880864Y-5767984D01*
X4877257Y-5765850D01*
X4871008Y-5760516D01*
X4866843Y-5757418D01*
X4863592Y-5756097D01*
X4860086Y-5753709D01*
X4850587Y-5746038D01*
X4840935Y-5737047D01*
X4837125Y-5733034D01*
X4830876Y-5724906D01*
X4829352Y-5723432D01*
X4825796Y-5721705D01*
X4822240Y-5719013D01*
X4819091Y-5715965D01*
X4817770Y-5713780D01*
X4816500Y-5709056D01*
X4813503Y-5701284D01*
X4809998Y-5693511D01*
X4807305Y-5688736D01*
X4804308Y-5684062D01*
X4800854Y-5677560D01*
X4797094Y-5669686D01*
X4796180Y-5437936D01*
X4662140Y-5437936D01*
X4660087Y-5440883D01*
X4657801Y-5445506D01*
X4653127Y-5457494D01*
X4650790Y-5462524D01*
X4648454Y-5466689D01*
X4646371Y-5469483D01*
X4642662Y-5473750D01*
X4640173Y-5477865D01*
X4638090Y-5483555D01*
X4633772Y-5499303D01*
X4628134Y-5518200D01*
X4617872Y-5550204D01*
X4618075Y-5619800D01*
X4632096Y-5662472D01*
X4635449Y-5673394D01*
X4638548Y-5685180D01*
X4639462Y-5687669D01*
X4640986Y-5690717D01*
X4642967Y-5694019D01*
X4647742Y-5700725D01*
X4650384Y-5705449D01*
X4652924Y-5710732D01*
X4657445Y-5722162D01*
X4659680Y-5726734D01*
X4662068Y-5730240D01*
X4669180Y-5737707D01*
X4673600Y-5743448D01*
X4677003Y-5748883D01*
X4678832Y-5753354D01*
X4682032Y-5756554D01*
X4686858Y-5760669D01*
X4689297Y-5763107D01*
X4694428Y-5769965D01*
X4700219Y-5776366D01*
X4711395Y-5787034D01*
X4712970Y-5788964D01*
X4719066Y-5794451D01*
X4739843Y-5811723D01*
X4748936Y-5818733D01*
X4756759Y-5823813D01*
X4762347Y-5826658D01*
X4768138Y-5830366D01*
X4775403Y-5835650D01*
X4781550Y-5838901D01*
X4787595Y-5841339D01*
X4793691Y-5842609D01*
X4796028Y-5843676D01*
X4799685Y-5845911D01*
X4805273Y-5849721D01*
X4810150Y-5852464D01*
X4816500Y-5855208D01*
X4823104Y-5857544D01*
X4833924Y-5860338D01*
X4840020Y-5862675D01*
X4845862Y-5865418D01*
X4850079Y-5868060D01*
X4855819Y-5870397D01*
X4865979Y-5873140D01*
X4876749Y-5875477D01*
X4887620Y-5876645D01*
X4908143Y-5879642D01*
X4918456Y-5880557D01*
X4931664Y-5881268D01*
X4963261Y-5881979D01*
X4979873Y-5881979D01*
X5010607Y-5881268D01*
X5022951Y-5880557D01*
X5032146Y-5879642D01*
X5040071Y-5878068D01*
X5048504Y-5876696D01*
X5053888Y-5876239D01*
X5064099Y-5874715D01*
X5078222Y-5871921D01*
X5083556Y-5870397D01*
X5087416Y-5868466D01*
X5093716Y-5863691D01*
X5096510Y-5861913D01*
X5099050Y-5860592D01*
X5101031Y-5859881D01*
X5111750Y-5857646D01*
X5120386Y-5855258D01*
X5126583Y-5852871D01*
X5129784Y-5850636D01*
X5131866Y-5848451D01*
X5132832Y-5847791D01*
X5134356Y-5847435D01*
X5136337Y-5846368D01*
X5138572Y-5844794D01*
X5141976Y-5843371D01*
X5149494Y-5841390D01*
X5155895Y-5838799D01*
X5162245Y-5835497D01*
X5170830Y-5829655D01*
X5178806Y-5824880D01*
X5186273Y-5820867D01*
X5189677Y-5818632D01*
X5192420Y-5816447D01*
X5195773Y-5812739D01*
X5201107Y-5808522D01*
X5207000Y-5805017D01*
X5210860Y-5802223D01*
X5212232Y-5800191D01*
X5217769Y-5794705D01*
X5226151Y-5787186D01*
X5234127Y-5779414D01*
X5238851Y-5774182D01*
X5243169Y-5770321D01*
X5246624Y-5768136D01*
X5248757Y-5766003D01*
X5250992Y-5763209D01*
X5258663Y-5751728D01*
X5260695Y-5749442D01*
X5261813Y-5747816D01*
X5262270Y-5746699D01*
X5267350Y-5741720D01*
X5269230Y-5739130D01*
X5271109Y-5735980D01*
X5275884Y-5725668D01*
X5278374Y-5720994D01*
X5280914Y-5717489D01*
X5284266Y-5713933D01*
X5286451Y-5711291D01*
X5288686Y-5707837D01*
X5290769Y-5703925D01*
X5300675Y-5677712D01*
X5302300Y-5674258D01*
X5303875Y-5671464D01*
X5307126Y-5667705D01*
X5308498Y-5665063D01*
X5309870Y-5660288D01*
X5312918Y-5645810D01*
X5314950Y-5632399D01*
X5316372Y-5617718D01*
X5317286Y-5602325D01*
X5317642Y-5586526D01*
X5317540Y-5570829D01*
X5316880Y-5555589D01*
X5315813Y-5541314D01*
X5314289Y-5528360D01*
X5312308Y-5517184D01*
X5311190Y-5512358D01*
X5308600Y-5504637D01*
X5307126Y-5501843D01*
X5302453Y-5495340D01*
X5299252Y-5489092D01*
X5296712Y-5482793D01*
X5294376Y-5472684D01*
X5291328Y-5465216D01*
X5287670Y-5458460D01*
X5284724Y-5454904D01*
X5283606Y-5454243D01*
X5282133Y-5452567D01*
X5281777Y-5450941D01*
X5281066Y-5449925D01*
X5279898Y-5449417D01*
X5278170Y-5447182D01*
X5273141Y-5436057D01*
X5269788Y-5429504D01*
X5266690Y-5424728D01*
X5260441Y-5417718D01*
X5254955Y-5410758D01*
X5250891Y-5404713D01*
X5248910Y-5402173D01*
X5246979Y-5400243D01*
X5245455Y-5399176D01*
X5241899Y-5397347D01*
X5238953Y-5395061D01*
X5236108Y-5391962D01*
X5230825Y-5384749D01*
X5225897Y-5379770D01*
X5221579Y-5376824D01*
X5219395Y-5374944D01*
X5217312Y-5372811D01*
X5213807Y-5368442D01*
X5211013Y-5365902D01*
X5207711Y-5363362D01*
X5198516Y-5357520D01*
X5196738Y-5356047D01*
X5194960Y-5353050D01*
X5191963Y-5350256D01*
X5187543Y-5347360D01*
X5179161Y-5343042D01*
X5172151Y-5338622D01*
X5164836Y-5333238D01*
X5160010Y-5330748D01*
X5153558Y-5328412D01*
X5144211Y-5325719D01*
X5141061Y-5324602D01*
X5137810Y-5322976D01*
X5134660Y-5320995D01*
X5131968Y-5318810D01*
X5126532Y-5315051D01*
X5119370Y-5311597D01*
X5111953Y-5309006D01*
X5104079Y-5307533D01*
X5097068Y-5304383D01*
X5088483Y-5299760D01*
X5084419Y-5297881D01*
X5081117Y-5296662D01*
X5078984Y-5296154D01*
X5073091Y-5295442D01*
X5037632Y-5288534D01*
X5027269Y-5286857D01*
X5007457Y-5284520D01*
X4977790Y-5282488D01*
G37*
G36*
X6374790Y-5360162D02*
G01*
X6367576Y-5360416D01*
X6361023Y-5361178D01*
X6351879Y-5363768D01*
X6349949Y-5364734D01*
X6348425Y-5366512D01*
X6347764Y-5367832D01*
X6346748Y-5371846D01*
X6346037Y-5377992D01*
X6345529Y-5386933D01*
X6345021Y-5415229D01*
X6344970Y-5614365D01*
X6357823Y-5624677D01*
X6377025Y-5624068D01*
X6390233Y-5623407D01*
X6398463Y-5622086D01*
X6403390Y-5619699D01*
X6406591Y-5615736D01*
X6407302Y-5614212D01*
X6407810Y-5611825D01*
X6408267Y-5608015D01*
X6408877Y-5593638D01*
X6409182Y-5566308D01*
X6409283Y-5370169D01*
X6404711Y-5366207D01*
X6401155Y-5364124D01*
X6395923Y-5362498D01*
X6389471Y-5361279D01*
X6382258Y-5360466D01*
G37*
G36*
X5727446Y-5360619D02*
G01*
X5692902Y-5360924D01*
X5682742Y-5361279D01*
X5675833Y-5361787D01*
X5671058Y-5362448D01*
X5661863Y-5364327D01*
X5659831Y-5365242D01*
X5658154Y-5366918D01*
X5656834Y-5369712D01*
X5655868Y-5374030D01*
X5655157Y-5380228D01*
X5654649Y-5388660D01*
X5654141Y-5413806D01*
X5653786Y-5614060D01*
X5658916Y-5618581D01*
X5661050Y-5619800D01*
X5663692Y-5620867D01*
X5667044Y-5621731D01*
X5671312Y-5622442D01*
X5683250Y-5623458D01*
X5701080Y-5624118D01*
X5754370Y-5624576D01*
X5788152Y-5624626D01*
X5798108Y-5624271D01*
X5804865Y-5623610D01*
X5809538Y-5622391D01*
X5813145Y-5620613D01*
X5821019Y-5615127D01*
X5828284Y-5610402D01*
X5828995Y-5609539D01*
X5829147Y-5608777D01*
X5828131Y-5607202D01*
X5827623Y-5605830D01*
X5826506Y-5597499D01*
X5824982Y-5592521D01*
X5823000Y-5588508D01*
X5821121Y-5586526D01*
X5820511Y-5586272D01*
X5819648Y-5585206D01*
X5819546Y-5584545D01*
X5818022Y-5582462D01*
X5814314Y-5579465D01*
X5809640Y-5576570D01*
X5805424Y-5574639D01*
X5801715Y-5574284D01*
X5794146Y-5574030D01*
X5771946Y-5574182D01*
X5742025Y-5574842D01*
X5735828Y-5571388D01*
X5728614Y-5566664D01*
X5724550Y-5561431D01*
X5722721Y-5553811D01*
X5722213Y-5541670D01*
X5721959Y-5523941D01*
X5731916Y-5516219D01*
X5736894Y-5513120D01*
X5738368Y-5512612D01*
X5788914Y-5512003D01*
X5795111Y-5511596D01*
X5799632Y-5510885D01*
X5802884Y-5509768D01*
X5805271Y-5508193D01*
X5807354Y-5505958D01*
X5809437Y-5503062D01*
X5811570Y-5499506D01*
X5812790Y-5495950D01*
X5813298Y-5491022D01*
X5813348Y-5475478D01*
X5812790Y-5470906D01*
X5811418Y-5468162D01*
X5804001Y-5461609D01*
X5751322Y-5461508D01*
X5744210Y-5461304D01*
X5738520Y-5460796D01*
X5734100Y-5459984D01*
X5730748Y-5458714D01*
X5728258Y-5456936D01*
X5726480Y-5454497D01*
X5725261Y-5451297D01*
X5724347Y-5447334D01*
X5721959Y-5428437D01*
X5721858Y-5423966D01*
X5722772Y-5421477D01*
X5724906Y-5419445D01*
X5728411Y-5416651D01*
X5731713Y-5414467D01*
X5735320Y-5412892D01*
X5739638Y-5411774D01*
X5745124Y-5411012D01*
X5752236Y-5410606D01*
X5795518Y-5410098D01*
X5802884Y-5409438D01*
X5808370Y-5408269D01*
X5812485Y-5406390D01*
X5815736Y-5403646D01*
X5818682Y-5399887D01*
X5821832Y-5394960D01*
X5824169Y-5390845D01*
X5825185Y-5387797D01*
X5825083Y-5384393D01*
X5823305Y-5376011D01*
X5822492Y-5373166D01*
X5821527Y-5370677D01*
X5820257Y-5368544D01*
X5818581Y-5366766D01*
X5816346Y-5365242D01*
X5813501Y-5363972D01*
X5809894Y-5362956D01*
X5805424Y-5362194D01*
X5799937Y-5361584D01*
X5785561Y-5360873D01*
X5765850Y-5360619D01*
G37*
G36*
X6291478Y-5360619D02*
G01*
X6278829Y-5360771D01*
X6265113Y-5361584D01*
X6255816Y-5363108D01*
X6249822Y-5365699D01*
X6246215Y-5369560D01*
X6244793Y-5371541D01*
X6240272Y-5376418D01*
X6233363Y-5382818D01*
X6232093Y-5384393D01*
X6229705Y-5389880D01*
X6227318Y-5394198D01*
X6225692Y-5398312D01*
X6225489Y-5399684D01*
X6224930Y-5401157D01*
X6223558Y-5403342D01*
X6221476Y-5405932D01*
X6216091Y-5411673D01*
X6213195Y-5415229D01*
X6210604Y-5418886D01*
X6205118Y-5427929D01*
X6201003Y-5432958D01*
X6196939Y-5436565D01*
X6193739Y-5437936D01*
X6192977Y-5438089D01*
X6191910Y-5439054D01*
X6191605Y-5440578D01*
X6190386Y-5442407D01*
X6188557Y-5444134D01*
X6186373Y-5447538D01*
X6184595Y-5451652D01*
X6182207Y-5455767D01*
X6178448Y-5460136D01*
X6176365Y-5454650D01*
X6175400Y-5450027D01*
X6174740Y-5441696D01*
X6174384Y-5428792D01*
X6174028Y-5385866D01*
X6173673Y-5378145D01*
X6173012Y-5372709D01*
X6171996Y-5369052D01*
X6170472Y-5366664D01*
X6168390Y-5365089D01*
X6165646Y-5363718D01*
X6162802Y-5362905D01*
X6158433Y-5362194D01*
X6153099Y-5361635D01*
X6140856Y-5361025D01*
X6129477Y-5361228D01*
X6119571Y-5362448D01*
X6116574Y-5363006D01*
X6114135Y-5364022D01*
X6113068Y-5364835D01*
X6111290Y-5367223D01*
X6109919Y-5371033D01*
X6108903Y-5376519D01*
X6108192Y-5384088D01*
X6107531Y-5406948D01*
X6107582Y-5453532D01*
X6108192Y-5556351D01*
X6108700Y-5587492D01*
X6109055Y-5597956D01*
X6109563Y-5605678D01*
X6110274Y-5611164D01*
X6111138Y-5614924D01*
X6112256Y-5617413D01*
X6113678Y-5619140D01*
X6115405Y-5620664D01*
X6118809Y-5623052D01*
X6122416Y-5623966D01*
X6128816Y-5624322D01*
X6146139Y-5624372D01*
X6156350Y-5624017D01*
X6160363Y-5623509D01*
X6163818Y-5622696D01*
X6166662Y-5621477D01*
X6168948Y-5619750D01*
X6170828Y-5617413D01*
X6172250Y-5614466D01*
X6173266Y-5610758D01*
X6174028Y-5606186D01*
X6174486Y-5600750D01*
X6174841Y-5586780D01*
X6174587Y-5546598D01*
X6174790Y-5533288D01*
X6175451Y-5525973D01*
X6176010Y-5523788D01*
X6176670Y-5522163D01*
X6179058Y-5517794D01*
X6183630Y-5524296D01*
X6184696Y-5526227D01*
X6186678Y-5532475D01*
X6189472Y-5536742D01*
X6193485Y-5541314D01*
X6198260Y-5545632D01*
X6202730Y-5550611D01*
X6207048Y-5557774D01*
X6210350Y-5565394D01*
X6211722Y-5571693D01*
X6212230Y-5573014D01*
X6213652Y-5574995D01*
X6221679Y-5583529D01*
X6224219Y-5587136D01*
X6226352Y-5591759D01*
X6231940Y-5607558D01*
X6235852Y-5613654D01*
X6241389Y-5617718D01*
X6249619Y-5620918D01*
X6255613Y-5622594D01*
X6261709Y-5623712D01*
X6269278Y-5624423D01*
X6279540Y-5624830D01*
X6293053Y-5624931D01*
X6301130Y-5623712D01*
X6305753Y-5620461D01*
X6308852Y-5614619D01*
X6309563Y-5609132D01*
X6308242Y-5602782D01*
X6305245Y-5596737D01*
X6301079Y-5592165D01*
X6297726Y-5589066D01*
X6297320Y-5587949D01*
X6296202Y-5586425D01*
X6295390Y-5585663D01*
X6294221Y-5584088D01*
X6290767Y-5577484D01*
X6286957Y-5568797D01*
X6284823Y-5564682D01*
X6282791Y-5561380D01*
X6277813Y-5555589D01*
X6277406Y-5554370D01*
X6274358Y-5551017D01*
X6270904Y-5544921D01*
X6267094Y-5536946D01*
X6265113Y-5533542D01*
X6263335Y-5531002D01*
X6259880Y-5527954D01*
X6257086Y-5523992D01*
X6253530Y-5517743D01*
X6249060Y-5508904D01*
X6247434Y-5506161D01*
X6242558Y-5499658D01*
X6233668Y-5490514D01*
X6235852Y-5476900D01*
X6237020Y-5473598D01*
X6238798Y-5471007D01*
X6243828Y-5466283D01*
X6246317Y-5463387D01*
X6248654Y-5460238D01*
X6252514Y-5454040D01*
X6254851Y-5450840D01*
X6257239Y-5447995D01*
X6261557Y-5443931D01*
X6265062Y-5440172D01*
X6270294Y-5431993D01*
X6274155Y-5424424D01*
X6275730Y-5422138D01*
X6283401Y-5413857D01*
X6287160Y-5408777D01*
X6290157Y-5403951D01*
X6291986Y-5399633D01*
X6295644Y-5395722D01*
X6303111Y-5388660D01*
X6304584Y-5386832D01*
X6305092Y-5385714D01*
X6305854Y-5382615D01*
X6308852Y-5373979D01*
X6309207Y-5371541D01*
X6308750Y-5369560D01*
X6307328Y-5367274D01*
X6303924Y-5363464D01*
X6299250Y-5361381D01*
G37*
G36*
X5968288Y-5360720D02*
G01*
X5953556Y-5360924D01*
X5941364Y-5361635D01*
X5937046Y-5362143D01*
X5934405Y-5362803D01*
X5930188Y-5364988D01*
X5926277Y-5367680D01*
X5922772Y-5370931D01*
X5919673Y-5374640D01*
X5916980Y-5378856D01*
X5914745Y-5383479D01*
X5912916Y-5388559D01*
X5908395Y-5408168D01*
X5905652Y-5416905D01*
X5896864Y-5438851D01*
X5894578Y-5445658D01*
X5892749Y-5452160D01*
X5889396Y-5469839D01*
X5887161Y-5478780D01*
X5884367Y-5486196D01*
X5876848Y-5500268D01*
X5875528Y-5503570D01*
X5874437Y-5507024D01*
X5941618Y-5507024D01*
X5942025Y-5505500D01*
X5944666Y-5500674D01*
X5947308Y-5492546D01*
X5949899Y-5481574D01*
X5951982Y-5469483D01*
X5952744Y-5463590D01*
X5954064Y-5456021D01*
X5956147Y-5447639D01*
X5958382Y-5440781D01*
X5960059Y-5437987D01*
X5962853Y-5442000D01*
X5965698Y-5447842D01*
X5968949Y-5456021D01*
X5971590Y-5463743D01*
X5973622Y-5471769D01*
X5975959Y-5477408D01*
X5979261Y-5484469D01*
X5986068Y-5497728D01*
X5987745Y-5502706D01*
X5988151Y-5506821D01*
X5987237Y-5510022D01*
X5985002Y-5512409D01*
X5981344Y-5514086D01*
X5976264Y-5515051D01*
X5969762Y-5515356D01*
X5961380Y-5515051D01*
X5954369Y-5514035D01*
X5948680Y-5512257D01*
X5944108Y-5509717D01*
X5942279Y-5508244D01*
X5941618Y-5507024D01*
X5874437Y-5507024D01*
X5873140Y-5512409D01*
X5868416Y-5539028D01*
X5867298Y-5544312D01*
X5865774Y-5548680D01*
X5863539Y-5552897D01*
X5856732Y-5562701D01*
X5854496Y-5567070D01*
X5853023Y-5571998D01*
X5850788Y-5584240D01*
X5845860Y-5606288D01*
X5845606Y-5610910D01*
X5846267Y-5614822D01*
X5847791Y-5618124D01*
X5850178Y-5620816D01*
X5853531Y-5622848D01*
X5857798Y-5624271D01*
X5863031Y-5625084D01*
X5869228Y-5625236D01*
X5876391Y-5624830D01*
X5884519Y-5623814D01*
X5904179Y-5620105D01*
X5907938Y-5612993D01*
X5909564Y-5609488D01*
X5911037Y-5605373D01*
X5912307Y-5601055D01*
X5915152Y-5584901D01*
X5916320Y-5580430D01*
X5917793Y-5576824D01*
X5919825Y-5574030D01*
X5922619Y-5571947D01*
X5926277Y-5570474D01*
X5931103Y-5569458D01*
X5937199Y-5568848D01*
X5954166Y-5568289D01*
X6001715Y-5567680D01*
X6005372Y-5571083D01*
X6007303Y-5573369D01*
X6008725Y-5576519D01*
X6009843Y-5581294D01*
X6012129Y-5595569D01*
X6013551Y-5601462D01*
X6015329Y-5606338D01*
X6017615Y-5610453D01*
X6020460Y-5613908D01*
X6024016Y-5616854D01*
X6028334Y-5619394D01*
X6033516Y-5621782D01*
X6037630Y-5622899D01*
X6043269Y-5623763D01*
X6050026Y-5624322D01*
X6064453Y-5624474D01*
X6071057Y-5624118D01*
X6076645Y-5623407D01*
X6080556Y-5622391D01*
X6084011Y-5620258D01*
X6086551Y-5617108D01*
X6088126Y-5613196D01*
X6088786Y-5608675D01*
X6088481Y-5603849D01*
X6087211Y-5598871D01*
X6084976Y-5593943D01*
X6081725Y-5589270D01*
X6078626Y-5584291D01*
X6075578Y-5577535D01*
X6073241Y-5570677D01*
X6072276Y-5565495D01*
X6071971Y-5561076D01*
X6071006Y-5555691D01*
X6069634Y-5549646D01*
X6067856Y-5543346D01*
X6063589Y-5531459D01*
X6061354Y-5526582D01*
X6056122Y-5518099D01*
X6054140Y-5513679D01*
X6052769Y-5508193D01*
X6050381Y-5492851D01*
X6049010Y-5485739D01*
X6045911Y-5473395D01*
X6044336Y-5468518D01*
X6042761Y-5464810D01*
X6041288Y-5462422D01*
X6039459Y-5461355D01*
X6039002Y-5460796D01*
X6037732Y-5455615D01*
X6034481Y-5448757D01*
X6033312Y-5445201D01*
X6032347Y-5441238D01*
X6030264Y-5427827D01*
X6028131Y-5419039D01*
X6025489Y-5411520D01*
X6021120Y-5403240D01*
X6018682Y-5397042D01*
X6017412Y-5391302D01*
X6015685Y-5385714D01*
X6013907Y-5381650D01*
X6010605Y-5371287D01*
X6008522Y-5368036D01*
X6005525Y-5365292D01*
X6001766Y-5363057D01*
X5999226Y-5362397D01*
X5995060Y-5361787D01*
X5983020Y-5361025D01*
G37*
G36*
X6628587Y-5360771D02*
G01*
X6621576Y-5360873D01*
X6614617Y-5361533D01*
X6604253Y-5363870D01*
X6601155Y-5364784D01*
X6598615Y-5365851D01*
X6596634Y-5367274D01*
X6595059Y-5369356D01*
X6593941Y-5372354D01*
X6593128Y-5376418D01*
X6592519Y-5381853D01*
X6591909Y-5397703D01*
X6590639Y-5472125D01*
X6586880Y-5475274D01*
X6582308Y-5478526D01*
X6578853Y-5479338D01*
X6576059Y-5477713D01*
X6573367Y-5473547D01*
X6571081Y-5468010D01*
X6570065Y-5463997D01*
X6568897Y-5457240D01*
X6566103Y-5448249D01*
X6562699Y-5439765D01*
X6559702Y-5434685D01*
X6557314Y-5432044D01*
X6556349Y-5430367D01*
X6555435Y-5428132D01*
X6553250Y-5424170D01*
X6551117Y-5419750D01*
X6548983Y-5410809D01*
X6546189Y-5403240D01*
X6542785Y-5396026D01*
X6539738Y-5391607D01*
X6537401Y-5389016D01*
X6536690Y-5387848D01*
X6536181Y-5386019D01*
X6534556Y-5382564D01*
X6532168Y-5378500D01*
X6530492Y-5374792D01*
X6530238Y-5373674D01*
X6529120Y-5370931D01*
X6526225Y-5367934D01*
X6522262Y-5365191D01*
X6517944Y-5363210D01*
X6514439Y-5362651D01*
X6500723Y-5361584D01*
X6483299Y-5360974D01*
X6468262Y-5361025D01*
X6463639Y-5361330D01*
X6458356Y-5362295D01*
X6454038Y-5363768D01*
X6450634Y-5365699D01*
X6448044Y-5368188D01*
X6447485Y-5370576D01*
X6446469Y-5384292D01*
X6445656Y-5407660D01*
X6445046Y-5437886D01*
X6444640Y-5472277D01*
X6444437Y-5525566D01*
X6444640Y-5558282D01*
X6445046Y-5585510D01*
X6445758Y-5604510D01*
X6446215Y-5610098D01*
X6446774Y-5612587D01*
X6448653Y-5615482D01*
X6449923Y-5617870D01*
X6451904Y-5619800D01*
X6455664Y-5621375D01*
X6460845Y-5622594D01*
X6466992Y-5623407D01*
X6473799Y-5623814D01*
X6480860Y-5623712D01*
X6487718Y-5623052D01*
X6496913Y-5621172D01*
X6499301Y-5620410D01*
X6501282Y-5619343D01*
X6502806Y-5617768D01*
X6504025Y-5615482D01*
X6504889Y-5612282D01*
X6505498Y-5607862D01*
X6505905Y-5602020D01*
X6506108Y-5585206D01*
X6505854Y-5530646D01*
X6506108Y-5514238D01*
X6506514Y-5509361D01*
X6507073Y-5505805D01*
X6507835Y-5503011D01*
X6511544Y-5494578D01*
X6513931Y-5490768D01*
X6516166Y-5488940D01*
X6518300Y-5489143D01*
X6520484Y-5491429D01*
X6522720Y-5495848D01*
X6525158Y-5502452D01*
X6529933Y-5517692D01*
X6532219Y-5523433D01*
X6534708Y-5528513D01*
X6541719Y-5539790D01*
X6543294Y-5542991D01*
X6546291Y-5552135D01*
X6549440Y-5559653D01*
X6552793Y-5566257D01*
X6555536Y-5570067D01*
X6558838Y-5573420D01*
X6561480Y-5577738D01*
X6563969Y-5584240D01*
X6568744Y-5600344D01*
X6570472Y-5605272D01*
X6572351Y-5609234D01*
X6574485Y-5612434D01*
X6577177Y-5615127D01*
X6580479Y-5617514D01*
X6584696Y-5619800D01*
X6589979Y-5622290D01*
X6594500Y-5624068D01*
X6599123Y-5624982D01*
X6606082Y-5625134D01*
X6617766Y-5624779D01*
X6631889Y-5623966D01*
X6641033Y-5622340D01*
X6646875Y-5619394D01*
X6651345Y-5614517D01*
X6654546Y-5610047D01*
X6653580Y-5414670D01*
X6653174Y-5389829D01*
X6652666Y-5375706D01*
X6652310Y-5372049D01*
X6651904Y-5370271D01*
X6650939Y-5369661D01*
X6649923Y-5368442D01*
X6649770Y-5367731D01*
X6648653Y-5365496D01*
X6645605Y-5363667D01*
X6640982Y-5362194D01*
X6635140Y-5361228D01*
G37*
G36*
X5458663Y-5361076D02*
G01*
X5431790Y-5361533D01*
X5429402Y-5361787D01*
X5423916Y-5363006D01*
X5419852Y-5364480D01*
X5416905Y-5366359D01*
X5414822Y-5368747D01*
X5414416Y-5370982D01*
X5413705Y-5384393D01*
X5412842Y-5421528D01*
X5481777Y-5421528D01*
X5487263Y-5417515D01*
X5490565Y-5415889D01*
X5492851Y-5415432D01*
X5500370Y-5412333D01*
X5505246Y-5411774D01*
X5511546Y-5412028D01*
X5519369Y-5413044D01*
X5528360Y-5415127D01*
X5536387Y-5418124D01*
X5542483Y-5421630D01*
X5545988Y-5425338D01*
X5547360Y-5428488D01*
X5548579Y-5432501D01*
X5550763Y-5442813D01*
X5552440Y-5455564D01*
X5553608Y-5469890D01*
X5554218Y-5485180D01*
X5554218Y-5500624D01*
X5553557Y-5515559D01*
X5552186Y-5529224D01*
X5549544Y-5546547D01*
X5548325Y-5552643D01*
X5547004Y-5557164D01*
X5545632Y-5560415D01*
X5544108Y-5562549D01*
X5542330Y-5563666D01*
X5539079Y-5564276D01*
X5524195Y-5569762D01*
X5517946Y-5571337D01*
X5511952Y-5572150D01*
X5506212Y-5572201D01*
X5500776Y-5571490D01*
X5495594Y-5569966D01*
X5490768Y-5567730D01*
X5486298Y-5564733D01*
X5482234Y-5561482D01*
X5481777Y-5421528D01*
X5412841Y-5421579D01*
X5412181Y-5497779D01*
X5412333Y-5571185D01*
X5412740Y-5594908D01*
X5413298Y-5609285D01*
X5413705Y-5612130D01*
X5415483Y-5617006D01*
X5416651Y-5618835D01*
X5418277Y-5620308D01*
X5420563Y-5621477D01*
X5423662Y-5622340D01*
X5427878Y-5622950D01*
X5440426Y-5623712D01*
X5483860Y-5624271D01*
X5518962Y-5623966D01*
X5529681Y-5623458D01*
X5560517Y-5619597D01*
X5565749Y-5618530D01*
X5570372Y-5617210D01*
X5574690Y-5615482D01*
X5578957Y-5613247D01*
X5583377Y-5610402D01*
X5588152Y-5606796D01*
X5598769Y-5597804D01*
X5603036Y-5593638D01*
X5606491Y-5589625D01*
X5609183Y-5585663D01*
X5611266Y-5581446D01*
X5612841Y-5576824D01*
X5614060Y-5571591D01*
X5615990Y-5560517D01*
X5617667Y-5555589D01*
X5620258Y-5550154D01*
X5624068Y-5543651D01*
X5625236Y-5540654D01*
X5626252Y-5536031D01*
X5627014Y-5529986D01*
X5627624Y-5522772D01*
X5628284Y-5505958D01*
X5628233Y-5487517D01*
X5627522Y-5469534D01*
X5626963Y-5461304D01*
X5625338Y-5447741D01*
X5624322Y-5442864D01*
X5623204Y-5439562D01*
X5620867Y-5437327D01*
X5620512Y-5436616D01*
X5620207Y-5434736D01*
X5618886Y-5431485D01*
X5616854Y-5427370D01*
X5615787Y-5423916D01*
X5612434Y-5407609D01*
X5609793Y-5400446D01*
X5606592Y-5395163D01*
X5603290Y-5392572D01*
X5601309Y-5391607D01*
X5600700Y-5390946D01*
X5600496Y-5390286D01*
X5598414Y-5387289D01*
X5593740Y-5382564D01*
X5588660Y-5378196D01*
X5585409Y-5376265D01*
X5582767Y-5375554D01*
X5579110Y-5373878D01*
X5575858Y-5372049D01*
X5574487Y-5370677D01*
X5574334Y-5370271D01*
X5573369Y-5369763D01*
X5571744Y-5369509D01*
X5569356Y-5368391D01*
X5566511Y-5366562D01*
X5564327Y-5365648D01*
X5561482Y-5364835D01*
X5553456Y-5363565D01*
X5541670Y-5362600D01*
X5525262Y-5361889D01*
X5479084Y-5361127D01*
G37*
G36*
X4964023Y-5455310D02*
G01*
X4960721Y-5458866D01*
X4955438Y-5465165D01*
X4952593Y-5470550D01*
X4951933Y-5475935D01*
X4953152Y-5482285D01*
X4957622Y-5497728D01*
X4958537Y-5499252D01*
X4959705Y-5500268D01*
X4964734Y-5502046D01*
X4967884Y-5504434D01*
X4970119Y-5507431D01*
X4972151Y-5516219D01*
X4974844Y-5522315D01*
X4978196Y-5527344D01*
X4981346Y-5529580D01*
X4985664Y-5531205D01*
X4989169Y-5534964D01*
X4992065Y-5541467D01*
X4995164Y-5552694D01*
X4996891Y-5555488D01*
X4997856Y-5556402D01*
X5004562Y-5561380D01*
X5008727Y-5566003D01*
X5011775Y-5572556D01*
X5016347Y-5586171D01*
X5017668Y-5588203D01*
X5019497Y-5589625D01*
X5024374Y-5591810D01*
X5026304Y-5593232D01*
X5027879Y-5594908D01*
X5034076Y-5607507D01*
X5036972Y-5615889D01*
X5037988Y-5617413D01*
X5039512Y-5618530D01*
X5044948Y-5620918D01*
X5047691Y-5623356D01*
X5049774Y-5626709D01*
X5053076Y-5636260D01*
X5055870Y-5641594D01*
X5059070Y-5646013D01*
X5062067Y-5648553D01*
X5065064Y-5650331D01*
X5067655Y-5652820D01*
X5070398Y-5656783D01*
X5075885Y-5666232D01*
X5077866Y-5669026D01*
X5079542Y-5670956D01*
X5080711Y-5671667D01*
X5082133Y-5671972D01*
X5082590Y-5672328D01*
X5082743Y-5672734D01*
X5083606Y-5673293D01*
X5089398Y-5674766D01*
X5093614Y-5675528D01*
X5100929Y-5676341D01*
X5105450Y-5675528D01*
X5108651Y-5672328D01*
X5112004Y-5665876D01*
X5113070Y-5661609D01*
X5112359Y-5657443D01*
X5109870Y-5653582D01*
X5105755Y-5650280D01*
X5102860Y-5647588D01*
X5099862Y-5643422D01*
X5097475Y-5639003D01*
X5096306Y-5634177D01*
X5094681Y-5630519D01*
X5090668Y-5623966D01*
X5089956Y-5622340D01*
X5086705Y-5618988D01*
X5081981Y-5614568D01*
X5079847Y-5612130D01*
X5078272Y-5609793D01*
X5075529Y-5602782D01*
X5072380Y-5597042D01*
X5068163Y-5591149D01*
X5058613Y-5580227D01*
X5057241Y-5578195D01*
X5055311Y-5573014D01*
X5052110Y-5566867D01*
X5048453Y-5561025D01*
X5045760Y-5557875D01*
X5043830Y-5556453D01*
X5041849Y-5554167D01*
X5039715Y-5551017D01*
X5033365Y-5539333D01*
X5030419Y-5534355D01*
X5028133Y-5531358D01*
X5026253Y-5529935D01*
X5023713Y-5527598D01*
X5020614Y-5523331D01*
X5017973Y-5518810D01*
X5015738Y-5512308D01*
X5012893Y-5507685D01*
X5009083Y-5502859D01*
X5001717Y-5495747D01*
X4999126Y-5492648D01*
X4997551Y-5489803D01*
X4996637Y-5485739D01*
X4994249Y-5480253D01*
X4992522Y-5476900D01*
X4989017Y-5471414D01*
X4984800Y-5466994D01*
X4979111Y-5463032D01*
X4971135Y-5458764D01*
G37*
G36*
X4944618Y-5503113D02*
G01*
X4938522Y-5504180D01*
X4929378Y-5506720D01*
X4926076Y-5508294D01*
X4923637Y-5510580D01*
X4921250Y-5514187D01*
X4918557Y-5519369D01*
X4917541Y-5523484D01*
X4918202Y-5526887D01*
X4920538Y-5529986D01*
X4925212Y-5534710D01*
X4928463Y-5538520D01*
X4930444Y-5541518D01*
X4931359Y-5544972D01*
X4932883Y-5549087D01*
X4939385Y-5561787D01*
X4940350Y-5562955D01*
X4941366Y-5563717D01*
X4946142Y-5565648D01*
X4949952Y-5569762D01*
X4952898Y-5575096D01*
X4954066Y-5580430D01*
X4954727Y-5585409D01*
X4956556Y-5589828D01*
X4959299Y-5593435D01*
X4966817Y-5598617D01*
X4970830Y-5603595D01*
X4974183Y-5609488D01*
X4976723Y-5617616D01*
X4977485Y-5619191D01*
X4978400Y-5620156D01*
X4982768Y-5621629D01*
X4986477Y-5624474D01*
X4989576Y-5627928D01*
X4990846Y-5630926D01*
X4991100Y-5632450D01*
X4992725Y-5636818D01*
X4995113Y-5641441D01*
X4996738Y-5645607D01*
X4997145Y-5647893D01*
X4997602Y-5648655D01*
X4998262Y-5649163D01*
X5002225Y-5650230D01*
X5005832Y-5652617D01*
X5009184Y-5655919D01*
X5011623Y-5659628D01*
X5016754Y-5669432D01*
X5018532Y-5671566D01*
X5020564Y-5673140D01*
X5022596Y-5674004D01*
X5025796Y-5674868D01*
X5029758Y-5675630D01*
X5044084Y-5677052D01*
X5047234Y-5672734D01*
X5050028Y-5666994D01*
X5051094Y-5661050D01*
X5050332Y-5656427D01*
X5047742Y-5654598D01*
X5044440Y-5653125D01*
X5040833Y-5649468D01*
X5037988Y-5644997D01*
X5036820Y-5640832D01*
X5035854Y-5636260D01*
X5033416Y-5631129D01*
X5030216Y-5626709D01*
X5027015Y-5624220D01*
X5023408Y-5621883D01*
X5020106Y-5618226D01*
X5017516Y-5613603D01*
X5015992Y-5608624D01*
X5014569Y-5602935D01*
X5012537Y-5598414D01*
X5010048Y-5595213D01*
X5003952Y-5591708D01*
X5000548Y-5587441D01*
X4997348Y-5581396D01*
X4993030Y-5568645D01*
X4991608Y-5565597D01*
X4990033Y-5564276D01*
X4987747Y-5563971D01*
X4985207Y-5563108D01*
X4982514Y-5560110D01*
X4979111Y-5554268D01*
X4972507Y-5540908D01*
X4970526Y-5537454D01*
X4968849Y-5535015D01*
X4967630Y-5533999D01*
X4963769Y-5531967D01*
X4960416Y-5528411D01*
X4958029Y-5523992D01*
X4956251Y-5515152D01*
X4954066Y-5509920D01*
X4951526Y-5505450D01*
X4949444Y-5503621D01*
X4946192Y-5503113D01*
G37*
G36*
X4905654Y-5549595D02*
G01*
X4903520Y-5550204D01*
X4900320Y-5551525D01*
X4895900Y-5554268D01*
X4893157Y-5557977D01*
X4891633Y-5563311D01*
X4891125Y-5570931D01*
X4891227Y-5576417D01*
X4891684Y-5580786D01*
X4892598Y-5584393D01*
X4898542Y-5596737D01*
X4899406Y-5597448D01*
X4900523Y-5597956D01*
X4905349Y-5599125D01*
X4908499Y-5602020D01*
X4910988Y-5606745D01*
X4912817Y-5613196D01*
X4914849Y-5621426D01*
X4916982Y-5626862D01*
X4919675Y-5630011D01*
X4923180Y-5631383D01*
X4927041Y-5633364D01*
X4930597Y-5637428D01*
X4933188Y-5642610D01*
X4934712Y-5652109D01*
X4936236Y-5655411D01*
X4938623Y-5657748D01*
X4943856Y-5659577D01*
X4945837Y-5660745D01*
X4947716Y-5662320D01*
X4954524Y-5670143D01*
X4960112Y-5674004D01*
X4966258Y-5676036D01*
X4972964Y-5676188D01*
X4978654Y-5675528D01*
X4982108Y-5674512D01*
X4984648Y-5672683D01*
X4987493Y-5669483D01*
X4990134Y-5665114D01*
X4990846Y-5661101D01*
X4989677Y-5657748D01*
X4986629Y-5655360D01*
X4982362Y-5652973D01*
X4979314Y-5649925D01*
X4977079Y-5645810D01*
X4974082Y-5635548D01*
X4972202Y-5631891D01*
X4969205Y-5628589D01*
X4961483Y-5622086D01*
X4959197Y-5619089D01*
X4957318Y-5615228D01*
X4953355Y-5603240D01*
X4951780Y-5599785D01*
X4950002Y-5598363D01*
X4947361Y-5598109D01*
X4944364Y-5596686D01*
X4941011Y-5593181D01*
X4938318Y-5588812D01*
X4936134Y-5580634D01*
X4933442Y-5575452D01*
X4930241Y-5571134D01*
X4927600Y-5569254D01*
X4924755Y-5568238D01*
X4921402Y-5565851D01*
X4918608Y-5562955D01*
X4917389Y-5560466D01*
X4915763Y-5557977D01*
X4912207Y-5554319D01*
X4908296Y-5551017D01*
G37*
G36*
X4869230Y-5600141D02*
G01*
X4865522Y-5600344D01*
X4863033Y-5601258D01*
X4860645Y-5602986D01*
X4857496Y-5609336D01*
X4856480Y-5618835D01*
X4857597Y-5628132D01*
X4860848Y-5633872D01*
X4866284Y-5637631D01*
X4869484Y-5640527D01*
X4871110Y-5643473D01*
X4873599Y-5653786D01*
X4875987Y-5658561D01*
X4879441Y-5662168D01*
X4887061Y-5666435D01*
X4891125Y-5669076D01*
X4892395Y-5670600D01*
X4893665Y-5671515D01*
X4895240Y-5671870D01*
X4897882Y-5673242D01*
X4899304Y-5674258D01*
X4906010Y-5676392D01*
X4913985Y-5674868D01*
X4920691Y-5670804D01*
X4923434Y-5665063D01*
X4923688Y-5663996D01*
X4924247Y-5662930D01*
X4925110Y-5661964D01*
X4927904Y-5660136D01*
X4927549Y-5659932D01*
X4926380Y-5659882D01*
X4923586Y-5657850D01*
X4920081Y-5653125D01*
X4917084Y-5647639D01*
X4915814Y-5643219D01*
X4915458Y-5638038D01*
X4914239Y-5634634D01*
X4912055Y-5632805D01*
X4908702Y-5632246D01*
X4906467Y-5632145D01*
X4904841Y-5631789D01*
X4903876Y-5631230D01*
X4903368Y-5629605D01*
X4902200Y-5627827D01*
X4900371Y-5626049D01*
X4898390Y-5622290D01*
X4894376Y-5610047D01*
X4890516Y-5604306D01*
X4884623Y-5601512D01*
X4875225Y-5600395D01*
G37*
G36*
X4845050Y-5642102D02*
G01*
X4841036Y-5644591D01*
X4834432Y-5650687D01*
X4827930Y-5657088D01*
X4824831Y-5661101D01*
X4824526Y-5664098D01*
X4826457Y-5667298D01*
X4830673Y-5671870D01*
X4835296Y-5675071D01*
X4840122Y-5676950D01*
X4844897Y-5677408D01*
X4849418Y-5676544D01*
X4853432Y-5674360D01*
X4856683Y-5670804D01*
X4858969Y-5665978D01*
X4859731Y-5660948D01*
X4858816Y-5655970D01*
X4856175Y-5651042D01*
X4851857Y-5646013D01*
X4848098Y-5642711D01*
G37*
G36*
X6256477Y-5669026D02*
G01*
X6248958Y-5669280D01*
X6242151Y-5669788D01*
X6236716Y-5670499D01*
X6233109Y-5671464D01*
X6227572Y-5674563D01*
X6216904Y-5682030D01*
X6214973Y-5683097D01*
X6212992Y-5683656D01*
X6212179Y-5684215D01*
X6209842Y-5687923D01*
X6209233Y-5688533D01*
X6208674Y-5688736D01*
X6207252Y-5689955D01*
X6206185Y-5693257D01*
X6205524Y-5698134D01*
X6205270Y-5704027D01*
X6205423Y-5710377D01*
X6206032Y-5716625D01*
X6206998Y-5722264D01*
X6208420Y-5726684D01*
X6211163Y-5731814D01*
X6214313Y-5736031D01*
X6217462Y-5738876D01*
X6220206Y-5739942D01*
X6222187Y-5740958D01*
X6225336Y-5743600D01*
X6228740Y-5747004D01*
X6231636Y-5750458D01*
X6235242Y-5752490D01*
X6242812Y-5755640D01*
X6250330Y-5759297D01*
X6257594Y-5763920D01*
X6263132Y-5768441D01*
X6265316Y-5771692D01*
X6265519Y-5772454D01*
X6267145Y-5774944D01*
X6269532Y-5777687D01*
X6271412Y-5780481D01*
X6269837Y-5782767D01*
X6266078Y-5786374D01*
X6261709Y-5789980D01*
X6258306Y-5792216D01*
X6253022Y-5793384D01*
X6245199Y-5793841D01*
X6236411Y-5793587D01*
X6228181Y-5792571D01*
X6220358Y-5792012D01*
X6213754Y-5793333D01*
X6208979Y-5796229D01*
X6206490Y-5800648D01*
X6205575Y-5806440D01*
X6205829Y-5811164D01*
X6207353Y-5814974D01*
X6210300Y-5817920D01*
X6214770Y-5820105D01*
X6220866Y-5821527D01*
X6228689Y-5822340D01*
X6238341Y-5822645D01*
X6251041Y-5822238D01*
X6261862Y-5821070D01*
X6266484Y-5820206D01*
X6270599Y-5819140D01*
X6274054Y-5817971D01*
X6284468Y-5812688D01*
X6292240Y-5807202D01*
X6298184Y-5802680D01*
X6303111Y-5796991D01*
X6306464Y-5789472D01*
X6307886Y-5781598D01*
X6306769Y-5774944D01*
X6305600Y-5771489D01*
X6305143Y-5768289D01*
X6304534Y-5766562D01*
X6302857Y-5764123D01*
X6300216Y-5761177D01*
X6293408Y-5754725D01*
X6287566Y-5748782D01*
X6285941Y-5746750D01*
X6282842Y-5743702D01*
X6277762Y-5740196D01*
X6271514Y-5736691D01*
X6262624Y-5732729D01*
X6257442Y-5729478D01*
X6252464Y-5725769D01*
X6249517Y-5723991D01*
X6246469Y-5722518D01*
X6241389Y-5720740D01*
X6238189Y-5719267D01*
X6237528Y-5718251D01*
X6236411Y-5717692D01*
X6235598Y-5717590D01*
X6232804Y-5716422D01*
X6231737Y-5713425D01*
X6232448Y-5709361D01*
X6234988Y-5704992D01*
X6236868Y-5702960D01*
X6238951Y-5701538D01*
X6241338Y-5700572D01*
X6246977Y-5699506D01*
X6252565Y-5698032D01*
X6257391Y-5696254D01*
X6260185Y-5695848D01*
X6263843Y-5696051D01*
X6269075Y-5696762D01*
X6278321Y-5697626D01*
X6285382Y-5696762D01*
X6290614Y-5694019D01*
X6294374Y-5689396D01*
X6297117Y-5682538D01*
X6296253Y-5677408D01*
X6291529Y-5673547D01*
X6282740Y-5670600D01*
X6277914Y-5669788D01*
X6271564Y-5669229D01*
G37*
G36*
X5963564Y-5670397D02*
G01*
X5949594Y-5670550D01*
X5942838Y-5670956D01*
X5937453Y-5672124D01*
X5934100Y-5673598D01*
X5931204Y-5676646D01*
X5928614Y-5681573D01*
X5926175Y-5688482D01*
X5925616Y-5690971D01*
X5924753Y-5699150D01*
X5924092Y-5710732D01*
X5923635Y-5724652D01*
X5923432Y-5739993D01*
X5923737Y-5770930D01*
X5924245Y-5784494D01*
X5924956Y-5795518D01*
X5925870Y-5802934D01*
X5926429Y-5804966D01*
X5929782Y-5812180D01*
X5933490Y-5816549D01*
X5938570Y-5818987D01*
X5946089Y-5820156D01*
X5954826Y-5820714D01*
X5979566Y-5821172D01*
X6004356Y-5820714D01*
X6013043Y-5820206D01*
X6020409Y-5819190D01*
X6024372Y-5817260D01*
X6025997Y-5813247D01*
X6026302Y-5806135D01*
X6026251Y-5801207D01*
X6025743Y-5797499D01*
X6024321Y-5794857D01*
X6021679Y-5793028D01*
X6017310Y-5791962D01*
X6010808Y-5791352D01*
X5989777Y-5791098D01*
X5960313Y-5791098D01*
X5956604Y-5787491D01*
X5953455Y-5781649D01*
X5952439Y-5773674D01*
X5953506Y-5765850D01*
X5956706Y-5760313D01*
X5959348Y-5758434D01*
X5962904Y-5757418D01*
X5969609Y-5757062D01*
X5993028Y-5756859D01*
X6000343Y-5756452D01*
X6005372Y-5755538D01*
X6009894Y-5753963D01*
X6015634Y-5751169D01*
X6019088Y-5748578D01*
X6020409Y-5745988D01*
X6019647Y-5743397D01*
X6017310Y-5740603D01*
X6014364Y-5737758D01*
X6011519Y-5735574D01*
X6009589Y-5734659D01*
X6007404Y-5734100D01*
X6001105Y-5731814D01*
X5997041Y-5731205D01*
X5991707Y-5730849D01*
X5971387Y-5730494D01*
X5963412Y-5729579D01*
X5958992Y-5727446D01*
X5956046Y-5723534D01*
X5953709Y-5718352D01*
X5952947Y-5713476D01*
X5953658Y-5709208D01*
X5955893Y-5705805D01*
X5958027Y-5703316D01*
X5958941Y-5701639D01*
X5961329Y-5701233D01*
X5977534Y-5700623D01*
X6009995Y-5700318D01*
X6016396Y-5699810D01*
X6020816Y-5698794D01*
X6023660Y-5697220D01*
X6025337Y-5694781D01*
X6026251Y-5691479D01*
X6026912Y-5687060D01*
X6027470Y-5680252D01*
X6026708Y-5675884D01*
X6024473Y-5673242D01*
X6020409Y-5671667D01*
X6013246Y-5671159D01*
X5981242Y-5670499D01*
G37*
G36*
X6094984Y-5670448D02*
G01*
X6081826Y-5670905D01*
X6076950Y-5671362D01*
X6073648Y-5672023D01*
X6069584Y-5673496D01*
X6066180Y-5675071D01*
X6063335Y-5677001D01*
X6060998Y-5679490D01*
X6059119Y-5682792D01*
X6057696Y-5687009D01*
X6056579Y-5692394D01*
X6055766Y-5699150D01*
X6054801Y-5717590D01*
X6054725Y-5722061D01*
X6090513Y-5722061D01*
X6091072Y-5713984D01*
X6093815Y-5707989D01*
X6096355Y-5705754D01*
X6099556Y-5704027D01*
X6103366Y-5702757D01*
X6107734Y-5702046D01*
X6112662Y-5701741D01*
X6118199Y-5701995D01*
X6124194Y-5702706D01*
X6130747Y-5703976D01*
X6138926Y-5706059D01*
X6143498Y-5708650D01*
X6145428Y-5712764D01*
X6145834Y-5719521D01*
X6145682Y-5724550D01*
X6145225Y-5727750D01*
X6144158Y-5729884D01*
X6142380Y-5731611D01*
X6138468Y-5733592D01*
X6132830Y-5735218D01*
X6126073Y-5736386D01*
X6118707Y-5737148D01*
X6111392Y-5737402D01*
X6104636Y-5737098D01*
X6099098Y-5736183D01*
X6095288Y-5734710D01*
X6091936Y-5729782D01*
X6090513Y-5722061D01*
X6054725Y-5722061D01*
X6054344Y-5770118D01*
X6054699Y-5788507D01*
X6055156Y-5795314D01*
X6055817Y-5800750D01*
X6056680Y-5805068D01*
X6057900Y-5808421D01*
X6059373Y-5811012D01*
X6061202Y-5813044D01*
X6063437Y-5814720D01*
X6066078Y-5816295D01*
X6071565Y-5818632D01*
X6076848Y-5819851D01*
X6081268Y-5819749D01*
X6084163Y-5818378D01*
X6086652Y-5813856D01*
X6088837Y-5806643D01*
X6090412Y-5797804D01*
X6091478Y-5782005D01*
X6092291Y-5776976D01*
X6093714Y-5773318D01*
X6095898Y-5770880D01*
X6098997Y-5769559D01*
X6103112Y-5769305D01*
X6108446Y-5769965D01*
X6115202Y-5771438D01*
X6120231Y-5772962D01*
X6123533Y-5775198D01*
X6126124Y-5779312D01*
X6131814Y-5792876D01*
X6134354Y-5797346D01*
X6137503Y-5801004D01*
X6145479Y-5808065D01*
X6148527Y-5811113D01*
X6150813Y-5813806D01*
X6152997Y-5817565D01*
X6154267Y-5818936D01*
X6155740Y-5819952D01*
X6157366Y-5820562D01*
X6161481Y-5820562D01*
X6166256Y-5819444D01*
X6170218Y-5817717D01*
X6171996Y-5815787D01*
X6172047Y-5804865D01*
X6170422Y-5796229D01*
X6166967Y-5789472D01*
X6160109Y-5782665D01*
X6158382Y-5779922D01*
X6156604Y-5776468D01*
X6155029Y-5772607D01*
X6151727Y-5763260D01*
X6156655Y-5758891D01*
X6159398Y-5757214D01*
X6164326Y-5755690D01*
X6168136Y-5752084D01*
X6171488Y-5746750D01*
X6173927Y-5740095D01*
X6175146Y-5734253D01*
X6175908Y-5728106D01*
X6176162Y-5721807D01*
X6176010Y-5715508D01*
X6175502Y-5709361D01*
X6174587Y-5703519D01*
X6173368Y-5698134D01*
X6171793Y-5693359D01*
X6170015Y-5689396D01*
X6167932Y-5686298D01*
X6165646Y-5684316D01*
X6160363Y-5682792D01*
X6156604Y-5681116D01*
X6153353Y-5679236D01*
X6151473Y-5677204D01*
X6147968Y-5676087D01*
X6144463Y-5674207D01*
X6142075Y-5673344D01*
X6137960Y-5672582D01*
X6125768Y-5671362D01*
X6110528Y-5670651D01*
G37*
G36*
X5581802Y-5670499D02*
G01*
X5578449Y-5671261D01*
X5574538Y-5672886D01*
X5571337Y-5675782D01*
X5568848Y-5679998D01*
X5567121Y-5685434D01*
X5566410Y-5691530D01*
X5565851Y-5701893D01*
X5565241Y-5731103D01*
X5565190Y-5756097D01*
X5565698Y-5786424D01*
X5566206Y-5797854D01*
X5566867Y-5805322D01*
X5567222Y-5807252D01*
X5571439Y-5815025D01*
X5577433Y-5819444D01*
X5584088Y-5820054D01*
X5590438Y-5816498D01*
X5592114Y-5814263D01*
X5593435Y-5811113D01*
X5594502Y-5806998D01*
X5595213Y-5801715D01*
X5595670Y-5795213D01*
X5595874Y-5787288D01*
X5595061Y-5753506D01*
X5595213Y-5745480D01*
X5596128Y-5740298D01*
X5598058Y-5735370D01*
X5601512Y-5727598D01*
X5610199Y-5743651D01*
X5613755Y-5749086D01*
X5617006Y-5752134D01*
X5626049Y-5757062D01*
X5627522Y-5758230D01*
X5628081Y-5759043D01*
X5629656Y-5764276D01*
X5633669Y-5771591D01*
X5638901Y-5779160D01*
X5646775Y-5788202D01*
X5650026Y-5793079D01*
X5652922Y-5797905D01*
X5654141Y-5800699D01*
X5657646Y-5804763D01*
X5665622Y-5811418D01*
X5674461Y-5817717D01*
X5680252Y-5820816D01*
X5685028Y-5820511D01*
X5689346Y-5817971D01*
X5692800Y-5813450D01*
X5695137Y-5807252D01*
X5695848Y-5801512D01*
X5696762Y-5778042D01*
X5697016Y-5762498D01*
X5696915Y-5721299D01*
X5696153Y-5694832D01*
X5695543Y-5686755D01*
X5695137Y-5684520D01*
X5691581Y-5676442D01*
X5686044Y-5671921D01*
X5679440Y-5671312D01*
X5672734Y-5675020D01*
X5668670Y-5678779D01*
X5667654Y-5724956D01*
X5666790Y-5744667D01*
X5666333Y-5748223D01*
X5665774Y-5750814D01*
X5665114Y-5752744D01*
X5662828Y-5756300D01*
X5661812Y-5757367D01*
X5661050Y-5757621D01*
X5658104Y-5753252D01*
X5655868Y-5750509D01*
X5654344Y-5747562D01*
X5654141Y-5746445D01*
X5652770Y-5743956D01*
X5649620Y-5740958D01*
X5645912Y-5738368D01*
X5642914Y-5737301D01*
X5640527Y-5735980D01*
X5637631Y-5732830D01*
X5635193Y-5729122D01*
X5633923Y-5724804D01*
X5632297Y-5721705D01*
X5629960Y-5718810D01*
X5628335Y-5716219D01*
X5627776Y-5714542D01*
X5625744Y-5712510D01*
X5622747Y-5710580D01*
X5621528Y-5709513D01*
X5620715Y-5708497D01*
X5620308Y-5706872D01*
X5619648Y-5705906D01*
X5618022Y-5705297D01*
X5616549Y-5703366D01*
X5608828Y-5689295D01*
X5606999Y-5686653D01*
X5605373Y-5684774D01*
X5602681Y-5683148D01*
X5598820Y-5680252D01*
X5593130Y-5675528D01*
X5588609Y-5672836D01*
X5584393Y-5670905D01*
G37*
G36*
X6429756Y-5670550D02*
G01*
X6404051Y-5670854D01*
X6395212Y-5671261D01*
X6391605Y-5672886D01*
X6389573Y-5675985D01*
X6389065Y-5680811D01*
X6390030Y-5687415D01*
X6391859Y-5694426D01*
X6394450Y-5698185D01*
X6399377Y-5699861D01*
X6420713Y-5701182D01*
X6425285Y-5708243D01*
X6426098Y-5710224D01*
X6426758Y-5712866D01*
X6427165Y-5716676D01*
X6427571Y-5730138D01*
X6427825Y-5776366D01*
X6428435Y-5793028D01*
X6428994Y-5799683D01*
X6429705Y-5805322D01*
X6430670Y-5809945D01*
X6431788Y-5813653D01*
X6433210Y-5816447D01*
X6434886Y-5818479D01*
X6436918Y-5819800D01*
X6439204Y-5820359D01*
X6441846Y-5820359D01*
X6444894Y-5819749D01*
X6448298Y-5818632D01*
X6454800Y-5815787D01*
X6457086Y-5814466D01*
X6458966Y-5812891D01*
X6460490Y-5810910D01*
X6461658Y-5808268D01*
X6462572Y-5804814D01*
X6463284Y-5800394D01*
X6464046Y-5787644D01*
X6464300Y-5768543D01*
X6464401Y-5709920D01*
X6474510Y-5702706D01*
X6477609Y-5701284D01*
X6481165Y-5700674D01*
X6486042Y-5700522D01*
X6494221Y-5699810D01*
X6499555Y-5697423D01*
X6502603Y-5692902D01*
X6503924Y-5685790D01*
X6503822Y-5678779D01*
X6501485Y-5674563D01*
X6495897Y-5672277D01*
X6486144Y-5671159D01*
X6467094Y-5670702D01*
G37*
G36*
X5522468Y-5670753D02*
G01*
X5519013Y-5671261D01*
X5517692Y-5671870D01*
X5514441Y-5674715D01*
X5511698Y-5678373D01*
X5510834Y-5680303D01*
X5510225Y-5683148D01*
X5509768Y-5687466D01*
X5509209Y-5703316D01*
X5508599Y-5762802D01*
X5508091Y-5778296D01*
X5507634Y-5782208D01*
X5507024Y-5784392D01*
X5506161Y-5785510D01*
X5505043Y-5786170D01*
X5499201Y-5788558D01*
X5492953Y-5790234D01*
X5485587Y-5791352D01*
X5476443Y-5792012D01*
X5461863Y-5792673D01*
X5449620Y-5781802D01*
X5448554Y-5723585D01*
X5447944Y-5704027D01*
X5446928Y-5690971D01*
X5446115Y-5686399D01*
X5445150Y-5682894D01*
X5443829Y-5680202D01*
X5442254Y-5678220D01*
X5440324Y-5676747D01*
X5437936Y-5675528D01*
X5435142Y-5674410D01*
X5425846Y-5671820D01*
X5419801Y-5672632D01*
X5416042Y-5677357D01*
X5413756Y-5686501D01*
X5413095Y-5694070D01*
X5412587Y-5706262D01*
X5412130Y-5737758D01*
X5412435Y-5768136D01*
X5412892Y-5778855D01*
X5413552Y-5784392D01*
X5415838Y-5792571D01*
X5417566Y-5795619D01*
X5421731Y-5800090D01*
X5428538Y-5806135D01*
X5438140Y-5813907D01*
X5442153Y-5816346D01*
X5447334Y-5818428D01*
X5453380Y-5820054D01*
X5460136Y-5821273D01*
X5467299Y-5822035D01*
X5474716Y-5822391D01*
X5482082Y-5822340D01*
X5489244Y-5821832D01*
X5495899Y-5820918D01*
X5501894Y-5819546D01*
X5506923Y-5817717D01*
X5510784Y-5815431D01*
X5516219Y-5811723D01*
X5523890Y-5807811D01*
X5525973Y-5806389D01*
X5527852Y-5804611D01*
X5529529Y-5802426D01*
X5531002Y-5799785D01*
X5532323Y-5796686D01*
X5533491Y-5793028D01*
X5535320Y-5783884D01*
X5536539Y-5771997D01*
X5537301Y-5757062D01*
X5537657Y-5738622D01*
X5537606Y-5716727D01*
X5537352Y-5706872D01*
X5536844Y-5698388D01*
X5536133Y-5691225D01*
X5535168Y-5685231D01*
X5533898Y-5680405D01*
X5532323Y-5676646D01*
X5530392Y-5673852D01*
X5528157Y-5671972D01*
X5525516Y-5671007D01*
G37*
G36*
X6639306Y-5671616D02*
G01*
X6633464Y-5671769D01*
X6632041Y-5672531D01*
X6630314Y-5674004D01*
X6628485Y-5675934D01*
X6619290Y-5687618D01*
X6613906Y-5693867D01*
X6610451Y-5698794D01*
X6609943Y-5700064D01*
X6608876Y-5704941D01*
X6606286Y-5711698D01*
X6603238Y-5718048D01*
X6600698Y-5721705D01*
X6597903Y-5722823D01*
X6594348Y-5723178D01*
X6591300Y-5722823D01*
X6589522Y-5721146D01*
X6586067Y-5719114D01*
X6583527Y-5717895D01*
X6578752Y-5714796D01*
X6574688Y-5710326D01*
X6571589Y-5704687D01*
X6567982Y-5693156D01*
X6565442Y-5688279D01*
X6562191Y-5683758D01*
X6558330Y-5679795D01*
X6553962Y-5676442D01*
X6549339Y-5673852D01*
X6544564Y-5672226D01*
X6539788Y-5671667D01*
X6535115Y-5672277D01*
X6532219Y-5674410D01*
X6530695Y-5678678D01*
X6530289Y-5685485D01*
X6530441Y-5691174D01*
X6531203Y-5694883D01*
X6533235Y-5698134D01*
X6539839Y-5705398D01*
X6542074Y-5708142D01*
X6543548Y-5710377D01*
X6544309Y-5712968D01*
X6545935Y-5716930D01*
X6548323Y-5721451D01*
X6550659Y-5727090D01*
X6553911Y-5730646D01*
X6559753Y-5736234D01*
X6562699Y-5739993D01*
X6565087Y-5744260D01*
X6567017Y-5749188D01*
X6568490Y-5754928D01*
X6569608Y-5761634D01*
X6570421Y-5769508D01*
X6571437Y-5787745D01*
X6572097Y-5795162D01*
X6573012Y-5801106D01*
X6574281Y-5805830D01*
X6575958Y-5809538D01*
X6578092Y-5812383D01*
X6580733Y-5814669D01*
X6584086Y-5816549D01*
X6588455Y-5818530D01*
X6592265Y-5819851D01*
X6595567Y-5820460D01*
X6598361Y-5820257D01*
X6600647Y-5819241D01*
X6602577Y-5817311D01*
X6604152Y-5814415D01*
X6605422Y-5810453D01*
X6606438Y-5805424D01*
X6607251Y-5799175D01*
X6609181Y-5769813D01*
X6609994Y-5761837D01*
X6611112Y-5757316D01*
X6614109Y-5752896D01*
X6615836Y-5749899D01*
X6616395Y-5747969D01*
X6618325Y-5745480D01*
X6619748Y-5744210D01*
X6621475Y-5742178D01*
X6623558Y-5738926D01*
X6625640Y-5734761D01*
X6629400Y-5725617D01*
X6632752Y-5718911D01*
X6634734Y-5716727D01*
X6635800Y-5715000D01*
X6636207Y-5713425D01*
X6636867Y-5712561D01*
X6639001Y-5711088D01*
X6642252Y-5708142D01*
X6645402Y-5702808D01*
X6647992Y-5695950D01*
X6649720Y-5688279D01*
X6650939Y-5681726D01*
X6651904Y-5678576D01*
X6651244Y-5676036D01*
X6646113Y-5673394D01*
G37*
G36*
X5740704Y-5671769D02*
G01*
X5736386Y-5672429D01*
X5732170Y-5674664D01*
X5730290Y-5676341D01*
X5728665Y-5678373D01*
X5727293Y-5680862D01*
X5726176Y-5684062D01*
X5725261Y-5688025D01*
X5724499Y-5692902D01*
X5723585Y-5706059D01*
X5723280Y-5724601D01*
X5723788Y-5773572D01*
X5724347Y-5790387D01*
X5724753Y-5796635D01*
X5725312Y-5801664D01*
X5726023Y-5805728D01*
X5726887Y-5808929D01*
X5727954Y-5811469D01*
X5729224Y-5813501D01*
X5730748Y-5815279D01*
X5732576Y-5816955D01*
X5738012Y-5820054D01*
X5743397Y-5820206D01*
X5748324Y-5817565D01*
X5752490Y-5812129D01*
X5752947Y-5810453D01*
X5753709Y-5802376D01*
X5754725Y-5773115D01*
X5754979Y-5754979D01*
X5754928Y-5727649D01*
X5754573Y-5711596D01*
X5753963Y-5699099D01*
X5753049Y-5687822D01*
X5752134Y-5681218D01*
X5750814Y-5677611D01*
X5748680Y-5675172D01*
X5744870Y-5672683D01*
G37*
G36*
X5785510Y-5671921D02*
G01*
X5779719Y-5672328D01*
X5775502Y-5674207D01*
X5773724Y-5675985D01*
X5772658Y-5678170D01*
X5772200Y-5681319D01*
X5772048Y-5695340D01*
X5779516Y-5701639D01*
X5783580Y-5705348D01*
X5785967Y-5708294D01*
X5787237Y-5711647D01*
X5790234Y-5730138D01*
X5791555Y-5735929D01*
X5793028Y-5741111D01*
X5794654Y-5745734D01*
X5796534Y-5749848D01*
X5798616Y-5753608D01*
X5803392Y-5760516D01*
X5805424Y-5763869D01*
X5806795Y-5766663D01*
X5807303Y-5768543D01*
X5807710Y-5772810D01*
X5808929Y-5778042D01*
X5810758Y-5783935D01*
X5812993Y-5790082D01*
X5815584Y-5796076D01*
X5818327Y-5801563D01*
X5821019Y-5806084D01*
X5823559Y-5809335D01*
X5829554Y-5815279D01*
X5833516Y-5818530D01*
X5836666Y-5819952D01*
X5840120Y-5820257D01*
X5844590Y-5819343D01*
X5848807Y-5817006D01*
X5851906Y-5813856D01*
X5853633Y-5808878D01*
X5854090Y-5808370D01*
X5855309Y-5807964D01*
X5856579Y-5806643D01*
X5857697Y-5804306D01*
X5860288Y-5800293D01*
X5861913Y-5798159D01*
X5864961Y-5793384D01*
X5867501Y-5787237D01*
X5869686Y-5779211D01*
X5873191Y-5761228D01*
X5875070Y-5755690D01*
X5877661Y-5751220D01*
X5881420Y-5746851D01*
X5884773Y-5741670D01*
X5888024Y-5733592D01*
X5890818Y-5723991D01*
X5893866Y-5708142D01*
X5896203Y-5702350D01*
X5899302Y-5697423D01*
X5902858Y-5693867D01*
X5905703Y-5689803D01*
X5906820Y-5684164D01*
X5906109Y-5678678D01*
X5903569Y-5675223D01*
X5897168Y-5673090D01*
X5889345Y-5672277D01*
X5882081Y-5672785D01*
X5877204Y-5674614D01*
X5874207Y-5679592D01*
X5870854Y-5688126D01*
X5868162Y-5697474D01*
X5867044Y-5704840D01*
X5866282Y-5708446D01*
X5864555Y-5712663D01*
X5862421Y-5716168D01*
X5859729Y-5718098D01*
X5859170Y-5720080D01*
X5857646Y-5722112D01*
X5856528Y-5723026D01*
X5855208Y-5724499D01*
X5854141Y-5726684D01*
X5853277Y-5729681D01*
X5850991Y-5742330D01*
X5848604Y-5751372D01*
X5845810Y-5759094D01*
X5843168Y-5764174D01*
X5840577Y-5767578D01*
X5837885Y-5763818D01*
X5834989Y-5757976D01*
X5831484Y-5748731D01*
X5828487Y-5739485D01*
X5826963Y-5732322D01*
X5826252Y-5730748D01*
X5819902Y-5722518D01*
X5816904Y-5717286D01*
X5814720Y-5711393D01*
X5810808Y-5693206D01*
X5807710Y-5684621D01*
X5803798Y-5678627D01*
X5799074Y-5675172D01*
X5792165Y-5672836D01*
G37*
G36*
X6341008Y-5672378D02*
G01*
X6337503Y-5673039D01*
X6334810Y-5674817D01*
X6333642Y-5675985D01*
X6332677Y-5677357D01*
X6331864Y-5679084D01*
X6330645Y-5684418D01*
X6329781Y-5693308D01*
X6329222Y-5707126D01*
X6328460Y-5753100D01*
X6328410Y-5774791D01*
X6328867Y-5790996D01*
X6329832Y-5802579D01*
X6330543Y-5806948D01*
X6331407Y-5810504D01*
X6332474Y-5813298D01*
X6333693Y-5815533D01*
X6335115Y-5817260D01*
X6337147Y-5819089D01*
X6339179Y-5819851D01*
X6342227Y-5819698D01*
X6353352Y-5817616D01*
X6355740Y-5816854D01*
X6357823Y-5815888D01*
X6359499Y-5814517D01*
X6360922Y-5812688D01*
X6362090Y-5810250D01*
X6362954Y-5807049D01*
X6363665Y-5802985D01*
X6364478Y-5791809D01*
X6364732Y-5775706D01*
X6364224Y-5701385D01*
X6363665Y-5687060D01*
X6363157Y-5682538D01*
X6362446Y-5679389D01*
X6361480Y-5677306D01*
X6360210Y-5676036D01*
X6358585Y-5675325D01*
X6346291Y-5672836D01*
G37*
D10*
X10769600Y-2780537D02*
G01*
X10769600Y-3076194D01*
X10778743Y-2780537D02*
G01*
X10778743Y-3076194D01*
X10769600Y-2780537D02*
G01*
X10834370Y-2780537D01*
X10769600Y-3076194D02*
G01*
X10834370Y-3076194D01*
X10895329Y-2817621D02*
G01*
X10895329Y-3011423D01*
X10895329Y-2817621D02*
G01*
X10978388Y-2817621D01*
X11006074Y-2826765D01*
X11015218Y-2835910D01*
X11024615Y-2854452D01*
X11024615Y-2872994D01*
X11015218Y-2891536D01*
X11006074Y-2900679D01*
X10978388Y-2909823D01*
X10895329Y-2909823D01*
X10959845Y-2909823D02*
G01*
X11024615Y-3011423D01*
X11196320Y-2882137D02*
G01*
X11196320Y-3011423D01*
X11196320Y-2909823D02*
G01*
X11177777Y-2891536D01*
X11159490Y-2882137D01*
X11131550Y-2882137D01*
X11113261Y-2891536D01*
X11094720Y-2909823D01*
X11085575Y-2937510D01*
X11085575Y-2956052D01*
X11094720Y-2983737D01*
X11113261Y-3002279D01*
X11131550Y-3011423D01*
X11159490Y-3011423D01*
X11177777Y-3002279D01*
X11196320Y-2983737D01*
X11358879Y-2909823D02*
G01*
X11349736Y-2891536D01*
X11322050Y-2882137D01*
X11294109Y-2882137D01*
X11266424Y-2891536D01*
X11257279Y-2909823D01*
X11266424Y-2928365D01*
X11284965Y-2937510D01*
X11331193Y-2946907D01*
X11349736Y-2956052D01*
X11358879Y-2974594D01*
X11358879Y-2983737D01*
X11349736Y-3002279D01*
X11322050Y-3011423D01*
X11294109Y-3011423D01*
X11266424Y-3002279D01*
X11257279Y-2983737D01*
X11419840Y-2882137D02*
G01*
X11419840Y-3076194D01*
X11419840Y-2909823D02*
G01*
X11438381Y-2891536D01*
X11456670Y-2882137D01*
X11484609Y-2882137D01*
X11502897Y-2891536D01*
X11521440Y-2909823D01*
X11530584Y-2937510D01*
X11530584Y-2956052D01*
X11521440Y-2983737D01*
X11502897Y-3002279D01*
X11484609Y-3011423D01*
X11456670Y-3011423D01*
X11438381Y-3002279D01*
X11419840Y-2983737D01*
X11591543Y-2817621D02*
G01*
X11591543Y-3011423D01*
X11591543Y-2909823D02*
G01*
X11610086Y-2891536D01*
X11628627Y-2882137D01*
X11656313Y-2882137D01*
X11674856Y-2891536D01*
X11693143Y-2909823D01*
X11702541Y-2937510D01*
X11702541Y-2956052D01*
X11693143Y-2983737D01*
X11674856Y-3002279D01*
X11656313Y-3011423D01*
X11628627Y-3011423D01*
X11610086Y-3002279D01*
X11591543Y-2983737D01*
X11763502Y-2937510D02*
G01*
X11874245Y-2937510D01*
X11874245Y-2919221D01*
X11865102Y-2900679D01*
X11855704Y-2891536D01*
X11837415Y-2882137D01*
X11809729Y-2882137D01*
X11791188Y-2891536D01*
X11772645Y-2909823D01*
X11763502Y-2937510D01*
X11763502Y-2956052D01*
X11772645Y-2983737D01*
X11791188Y-3002279D01*
X11809729Y-3011423D01*
X11837415Y-3011423D01*
X11855704Y-3002279D01*
X11874245Y-2983737D01*
X11935206Y-2882137D02*
G01*
X11935206Y-3011423D01*
X11935206Y-2937510D02*
G01*
X11944350Y-2909823D01*
X11962891Y-2891536D01*
X11981434Y-2882137D01*
X12009120Y-2882137D01*
X12070079Y-2882137D02*
G01*
X12070079Y-3011423D01*
X12070079Y-2937510D02*
G01*
X12079224Y-2909823D01*
X12097765Y-2891536D01*
X12116308Y-2882137D01*
X12143993Y-2882137D01*
X12214097Y-2882137D02*
G01*
X12269470Y-3011423D01*
X12325095Y-2882137D02*
G01*
X12269470Y-3011423D01*
X12251181Y-3048507D01*
X12232640Y-3067050D01*
X12214097Y-3076194D01*
X12204954Y-3076194D01*
X12528295Y-2817621D02*
G01*
X12528295Y-3011423D01*
X12528295Y-2817621D02*
G01*
X12611354Y-2817621D01*
X12639040Y-2826765D01*
X12648184Y-2835910D01*
X12657581Y-2854452D01*
X12657581Y-2882137D01*
X12648184Y-2900679D01*
X12639040Y-2909823D01*
X12611354Y-2919221D01*
X12528295Y-2919221D01*
X12718541Y-2817621D02*
G01*
X12727686Y-2826765D01*
X12736829Y-2817621D01*
X12727686Y-2808223D01*
X12718541Y-2817621D01*
X12727686Y-2882137D02*
G01*
X12727686Y-3011423D01*
X12940029Y-2817621D02*
G01*
X12940029Y-3011423D01*
X12940029Y-2817621D02*
G01*
X13013943Y-3011423D01*
X13087858Y-2817621D02*
G01*
X13013943Y-3011423D01*
X13087858Y-2817621D02*
G01*
X13087858Y-3011423D01*
X13195045Y-2882137D02*
G01*
X13176504Y-2891536D01*
X13158216Y-2909823D01*
X13148818Y-2937510D01*
X13148818Y-2956052D01*
X13158216Y-2983737D01*
X13176504Y-3002279D01*
X13195045Y-3011423D01*
X13222731Y-3011423D01*
X13241274Y-3002279D01*
X13259816Y-2983737D01*
X13268959Y-2956052D01*
X13268959Y-2937510D01*
X13259816Y-2909823D01*
X13241274Y-2891536D01*
X13222731Y-2882137D01*
X13195045Y-2882137D01*
X13440663Y-2817621D02*
G01*
X13440663Y-3011423D01*
X13440663Y-2909823D02*
G01*
X13422375Y-2891536D01*
X13403834Y-2882137D01*
X13376147Y-2882137D01*
X13357606Y-2891536D01*
X13339063Y-2909823D01*
X13329920Y-2937510D01*
X13329920Y-2956052D01*
X13339063Y-2983737D01*
X13357606Y-3002279D01*
X13376147Y-3011423D01*
X13403834Y-3011423D01*
X13422375Y-3002279D01*
X13440663Y-2983737D01*
X13501624Y-2882137D02*
G01*
X13501624Y-2974594D01*
X13511022Y-3002279D01*
X13529309Y-3011423D01*
X13557250Y-3011423D01*
X13575538Y-3002279D01*
X13603224Y-2974594D01*
X13603224Y-2882137D02*
G01*
X13603224Y-3011423D01*
X13664184Y-2817621D02*
G01*
X13664184Y-3011423D01*
X13725143Y-2937510D02*
G01*
X13836141Y-2937510D01*
X13836141Y-2919221D01*
X13826743Y-2900679D01*
X13817600Y-2891536D01*
X13799058Y-2882137D01*
X13771372Y-2882137D01*
X13752829Y-2891536D01*
X13734541Y-2909823D01*
X13725143Y-2937510D01*
X13725143Y-2956052D01*
X13734541Y-2983737D01*
X13752829Y-3002279D01*
X13771372Y-3011423D01*
X13799058Y-3011423D01*
X13817600Y-3002279D01*
X13836141Y-2983737D01*
X13952474Y-2780537D02*
G01*
X13952474Y-3076194D01*
X13961618Y-2780537D02*
G01*
X13961618Y-3076194D01*
X13897102Y-2780537D02*
G01*
X13961618Y-2780537D01*
X13897102Y-3076194D02*
G01*
X13961618Y-3076194D01*
D11*
G01*
X5021300Y-2057400D03*
G01*
X5621299Y-2057400D03*
D12*
G01*
X5380890Y-3302000D03*
G01*
X5210891Y-3302000D03*
D13*
G01*
X5409324Y-3581400D03*
D14*
G01*
X5258675Y-3581400D03*
D15*
G01*
X4927600Y-990600D03*
G01*
X5181600Y-990600D03*
G01*
X5435600Y-990600D03*
G01*
X5689600Y-990600D03*
D16*
G01*
X14579600Y-520700D03*
D17*
G01*
X14579600Y-266700D03*
G01*
X14325600Y-520700D03*
G01*
X14325600Y-266700D03*
G01*
X14071600Y-520700D03*
G01*
X14071600Y-266700D03*
G01*
X13817600Y-520700D03*
G01*
X13817600Y-266700D03*
G01*
X13563600Y-520700D03*
G01*
X13563600Y-266700D03*
G01*
X13309600Y-520700D03*
G01*
X13309600Y-266700D03*
G01*
X13055600Y-520700D03*
G01*
X13055600Y-266700D03*
G01*
X12801600Y-520700D03*
G01*
X12801600Y-266700D03*
G01*
X12547600Y-520700D03*
G01*
X12547600Y-266700D03*
G01*
X12293600Y-520700D03*
G01*
X12293600Y-266700D03*
G01*
X12039600Y-520700D03*
G01*
X12039600Y-266700D03*
G01*
X11785600Y-520700D03*
G01*
X11785600Y-266700D03*
G01*
X11531600Y-520700D03*
G01*
X11531600Y-266700D03*
G01*
X11277600Y-520700D03*
G01*
X11277600Y-266700D03*
G01*
X11023600Y-520700D03*
G01*
X11023600Y-266700D03*
G01*
X10769600Y-520700D03*
G01*
X10769600Y-266700D03*
G01*
X10515600Y-520700D03*
G01*
X10515600Y-266700D03*
G01*
X10261600Y-520700D03*
G01*
X10261600Y-266700D03*
G01*
X10007600Y-520700D03*
G01*
X10007600Y-266700D03*
G01*
X9753600Y-520700D03*
G01*
X9753600Y-266700D03*
M02*
